<svg width="3891" height="2365" xmlns="http://www.w3.org/2000/svg" xmlns:xlink="http://www.w3.org/1999/xlink" xml:space="preserve" overflow="hidden"><g transform="translate(-128 -77)"><g><path d="M1858 1343 2656.77 1682.65" stroke="#D9D9D9" stroke-width="91.6667" stroke-linecap="butt" stroke-linejoin="miter" stroke-miterlimit="8" stroke-opacity="1" fill="none" fill-rule="evenodd"/><path d="M848.5 1232.5 1386.82 1234.77" stroke="#D9D9D9" stroke-width="73.3333" stroke-linecap="butt" stroke-linejoin="miter" stroke-miterlimit="8" stroke-opacity="1" fill="none" fill-rule="evenodd"/><rect x="2528.5" y="1317.5" width="520" height="799" stroke="#274247" stroke-width="3.4375" stroke-linecap="butt" stroke-linejoin="miter" stroke-miterlimit="8" stroke-opacity="1" fill="#C3DCDC" fill-opacity="0.501961"/><text fill="#274247" fill-opacity="1" font-family="Roboto Condensed,Roboto Condensed_MSFontService,sans-serif" font-style="normal" font-variant="normal" font-weight="700" font-stretch="condensed" font-size="73" text-anchor="start" direction="ltr" writing-mode="lr-tb" unicode-bidi="normal" text-decoration="none" transform="matrix(1 0 0 1 2640.27 1419)">Delt</text><text fill="#274247" fill-opacity="1" font-family="Roboto Condensed,Roboto Condensed_MSFontService,sans-serif" font-style="normal" font-variant="normal" font-weight="700" font-stretch="condensed" font-size="73" text-anchor="start" direction="ltr" writing-mode="lr-tb" unicode-bidi="normal" text-decoration="none" transform="matrix(1 0 0 1 2757.15 1419)">-</text><text fill="#274247" fill-opacity="1" font-family="Roboto Condensed,Roboto Condensed_MSFontService,sans-serif" font-style="normal" font-variant="normal" font-weight="700" font-stretch="condensed" font-size="73" text-anchor="start" direction="ltr" writing-mode="lr-tb" unicode-bidi="normal" text-decoration="none" transform="matrix(1 0 0 1 2783.5 1419)">bøtta</text><text fill="#274247" fill-opacity="1" font-family="Roboto Condensed,Roboto Condensed_MSFontService,sans-serif" font-style="normal" font-variant="normal" font-weight="700" font-stretch="condensed" font-size="73" text-anchor="start" direction="ltr" writing-mode="lr-tb" unicode-bidi="normal" text-decoration="none" transform="matrix(1 0 0 1 2645.71 1507)">(delomat)</text><rect x="2528.5" y="189.5" width="520" height="799" stroke="#274247" stroke-width="3.4375" stroke-linecap="butt" stroke-linejoin="miter" stroke-miterlimit="8" stroke-opacity="1" fill="#C00000" fill-opacity="0.101961"/><text fill="#274247" fill-opacity="1" font-family="Roboto Condensed,Roboto Condensed_MSFontService,sans-serif" font-style="normal" font-variant="normal" font-weight="700" font-stretch="condensed" font-size="73" text-anchor="start" direction="ltr" writing-mode="lr-tb" unicode-bidi="normal" text-decoration="none" transform="matrix(1 0 0 1 2640.29 291)">Delt</text><text fill="#274247" fill-opacity="1" font-family="Roboto Condensed,Roboto Condensed_MSFontService,sans-serif" font-style="normal" font-variant="normal" font-weight="700" font-stretch="condensed" font-size="73" text-anchor="start" direction="ltr" writing-mode="lr-tb" unicode-bidi="normal" text-decoration="none" transform="matrix(1 0 0 1 2757.16 291)">-</text><text fill="#274247" fill-opacity="1" font-family="Roboto Condensed,Roboto Condensed_MSFontService,sans-serif" font-style="normal" font-variant="normal" font-weight="700" font-stretch="condensed" font-size="73" text-anchor="start" direction="ltr" writing-mode="lr-tb" unicode-bidi="normal" text-decoration="none" transform="matrix(1 0 0 1 2783.52 291)">bøtta</text><text fill="#274247" fill-opacity="1" font-family="Roboto Condensed,Roboto Condensed_MSFontService,sans-serif" font-style="normal" font-variant="normal" font-weight="700" font-stretch="condensed" font-size="73" text-anchor="start" direction="ltr" writing-mode="lr-tb" unicode-bidi="normal" text-decoration="none" transform="matrix(1 0 0 1 2635.98 379)">(standard)</text><rect x="226.5" y="749.5" width="520" height="799" stroke="#274247" stroke-width="3.4375" stroke-linecap="butt" stroke-linejoin="miter" stroke-miterlimit="8" stroke-opacity="1" fill="#C3DCDC" fill-opacity="0.501961"/><text fill="#274247" fill-opacity="1" font-family="Roboto Condensed,Roboto Condensed_MSFontService,sans-serif" font-style="normal" font-variant="normal" font-weight="700" font-stretch="condensed" font-size="73" text-anchor="start" direction="ltr" writing-mode="lr-tb" unicode-bidi="normal" text-decoration="none" transform="matrix(1 0 0 1 335.853 852)">Kildebøtta</text><path d="M349.5 1233C349.5 1095.2 461.205 983.5 599 983.5 736.795 983.5 848.5 1095.2 848.5 1233 848.5 1370.8 736.795 1482.5 599 1482.5 461.205 1482.5 349.5 1370.8 349.5 1233Z" stroke="#274247" stroke-width="6.875" stroke-linecap="butt" stroke-linejoin="miter" stroke-miterlimit="8" stroke-opacity="1" fill="#FFFFFF" fill-rule="evenodd" fill-opacity="1"/><path d="M463.5 1274.83C463.5 1272.99 464.992 1271.5 466.833 1271.5L522.167 1271.5C524.008 1271.5 525.5 1272.99 525.5 1274.83L525.5 1288.17C525.5 1290.01 524.008 1291.5 522.167 1291.5L466.833 1291.5C464.992 1291.5 463.5 1290.01 463.5 1288.17Z" stroke="#274247" stroke-width="3.4375" stroke-linecap="butt" stroke-linejoin="miter" stroke-miterlimit="8" stroke-opacity="1" fill="#E9F2F1" fill-rule="evenodd" fill-opacity="1"/><path d="M536.5 1274.83C536.5 1272.99 537.993 1271.5 539.833 1271.5L595.167 1271.5C597.008 1271.5 598.5 1272.99 598.5 1274.83L598.5 1288.17C598.5 1290.01 597.008 1291.5 595.167 1291.5L539.833 1291.5C537.993 1291.5 536.5 1290.01 536.5 1288.17Z" stroke="#274247" stroke-width="3.4375" stroke-linecap="butt" stroke-linejoin="miter" stroke-miterlimit="8" stroke-opacity="1" fill="#1A9D49" fill-rule="evenodd" fill-opacity="1"/><path d="M608.5 1274.83C608.5 1272.99 609.992 1271.5 611.833 1271.5L668.166 1271.5C670.007 1271.5 671.5 1272.99 671.5 1274.83L671.5 1288.17C671.5 1290.01 670.007 1291.5 668.166 1291.5L611.833 1291.5C609.992 1291.5 608.5 1290.01 608.5 1288.17Z" stroke="#274247" stroke-width="3.4375" stroke-linecap="butt" stroke-linejoin="miter" stroke-miterlimit="8" stroke-opacity="1" fill="#E9F2F1" fill-rule="evenodd" fill-opacity="1"/><path d="M463.5 1305C463.5 1303.07 465.067 1301.5 467 1301.5L522 1301.5C523.933 1301.5 525.5 1303.07 525.5 1305L525.5 1319C525.5 1320.93 523.933 1322.5 522 1322.5L467 1322.5C465.067 1322.5 463.5 1320.93 463.5 1319Z" stroke="#274247" stroke-width="3.4375" stroke-linecap="butt" stroke-linejoin="miter" stroke-miterlimit="8" stroke-opacity="1" fill="#F8EFCB" fill-rule="evenodd" fill-opacity="1"/><path d="M536.5 1305C536.5 1303.07 538.067 1301.5 540 1301.5L595 1301.5C596.933 1301.5 598.5 1303.07 598.5 1305L598.5 1319C598.5 1320.93 596.933 1322.5 595 1322.5L540 1322.5C538.067 1322.5 536.5 1320.93 536.5 1319Z" stroke="#274247" stroke-width="3.4375" stroke-linecap="butt" stroke-linejoin="miter" stroke-miterlimit="8" stroke-opacity="1" fill="#1A9D49" fill-rule="evenodd" fill-opacity="1"/><path d="M608.5 1305C608.5 1303.07 610.067 1301.5 612 1301.5L668 1301.5C669.933 1301.5 671.5 1303.07 671.5 1305L671.5 1319C671.5 1320.93 669.933 1322.5 668 1322.5L612 1322.5C610.067 1322.5 608.5 1320.93 608.5 1319Z" stroke="#274247" stroke-width="3.4375" stroke-linecap="butt" stroke-linejoin="miter" stroke-miterlimit="8" stroke-opacity="1" fill="#E9F2F1" fill-rule="evenodd" fill-opacity="1"/><path d="M463.5 1336C463.5 1334.07 465.067 1332.5 467 1332.5L522 1332.5C523.933 1332.5 525.5 1334.07 525.5 1336L525.5 1350C525.5 1351.93 523.933 1353.5 522 1353.5L467 1353.5C465.067 1353.5 463.5 1351.93 463.5 1350Z" stroke="#274247" stroke-width="3.4375" stroke-linecap="butt" stroke-linejoin="miter" stroke-miterlimit="8" stroke-opacity="1" fill="#E9F2F1" fill-rule="evenodd" fill-opacity="1"/><path d="M536.5 1336C536.5 1334.07 538.067 1332.5 540 1332.5L595 1332.5C596.933 1332.5 598.5 1334.07 598.5 1336L598.5 1350C598.5 1351.93 596.933 1353.5 595 1353.5L540 1353.5C538.067 1353.5 536.5 1351.93 536.5 1350Z" stroke="#274247" stroke-width="3.4375" stroke-linecap="butt" stroke-linejoin="miter" stroke-miterlimit="8" stroke-opacity="1" fill="#1A9D49" fill-rule="evenodd" fill-opacity="1"/><path d="M608.5 1336C608.5 1334.07 610.067 1332.5 612 1332.5L668 1332.5C669.933 1332.5 671.5 1334.07 671.5 1336L671.5 1350C671.5 1351.93 669.933 1353.5 668 1353.5L612 1353.5C610.067 1353.5 608.5 1351.93 608.5 1350Z" stroke="#274247" stroke-width="3.4375" stroke-linecap="butt" stroke-linejoin="miter" stroke-miterlimit="8" stroke-opacity="1" fill="#EED87B" fill-rule="evenodd" fill-opacity="1"/><path d="M463.5 1367C463.5 1365.07 465.067 1363.5 467 1363.5L522 1363.5C523.933 1363.5 525.5 1365.07 525.5 1367L525.5 1381C525.5 1382.93 523.933 1384.5 522 1384.5L467 1384.5C465.067 1384.5 463.5 1382.93 463.5 1381Z" stroke="#274247" stroke-width="3.4375" stroke-linecap="butt" stroke-linejoin="miter" stroke-miterlimit="8" stroke-opacity="1" fill="#E9F2F1" fill-rule="evenodd" fill-opacity="1"/><path d="M536.5 1367C536.5 1365.07 538.067 1363.5 540 1363.5L595 1363.5C596.933 1363.5 598.5 1365.07 598.5 1367L598.5 1381C598.5 1382.93 596.933 1384.5 595 1384.5L540 1384.5C538.067 1384.5 536.5 1382.93 536.5 1381Z" stroke="#274247" stroke-width="3.4375" stroke-linecap="butt" stroke-linejoin="miter" stroke-miterlimit="8" stroke-opacity="1" fill="#1A9D49" fill-rule="evenodd" fill-opacity="1"/><path d="M608.5 1367C608.5 1365.07 610.067 1363.5 612 1363.5L668 1363.5C669.933 1363.5 671.5 1365.07 671.5 1367L671.5 1381C671.5 1382.93 669.933 1384.5 668 1384.5L612 1384.5C610.067 1384.5 608.5 1382.93 608.5 1381Z" stroke="#274247" stroke-width="3.4375" stroke-linecap="butt" stroke-linejoin="miter" stroke-miterlimit="8" stroke-opacity="1" fill="#E9F2F1" fill-rule="evenodd" fill-opacity="1"/><path d="M683.5 1274.83C683.5 1272.99 684.992 1271.5 686.833 1271.5L743.167 1271.5C745.008 1271.5 746.5 1272.99 746.5 1274.83L746.5 1288.17C746.5 1290.01 745.008 1291.5 743.167 1291.5L686.833 1291.5C684.992 1291.5 683.5 1290.01 683.5 1288.17Z" stroke="#274247" stroke-width="3.4375" stroke-linecap="butt" stroke-linejoin="miter" stroke-miterlimit="8" stroke-opacity="1" fill="#E9F2F1" fill-rule="evenodd" fill-opacity="1"/><path d="M683.5 1305C683.5 1303.07 685.067 1301.5 687 1301.5L743 1301.5C744.933 1301.5 746.5 1303.07 746.5 1305L746.5 1319C746.5 1320.93 744.933 1322.5 743 1322.5L687 1322.5C685.067 1322.5 683.5 1320.93 683.5 1319Z" stroke="#274247" stroke-width="3.4375" stroke-linecap="butt" stroke-linejoin="miter" stroke-miterlimit="8" stroke-opacity="1" fill="#E9F2F1" fill-rule="evenodd" fill-opacity="1"/><path d="M683.5 1336C683.5 1334.07 685.067 1332.5 687 1332.5L743 1332.5C744.933 1332.5 746.5 1334.07 746.5 1336L746.5 1350C746.5 1351.93 744.933 1353.5 743 1353.5L687 1353.5C685.067 1353.5 683.5 1351.93 683.5 1350Z" stroke="#274247" stroke-width="3.4375" stroke-linecap="butt" stroke-linejoin="miter" stroke-miterlimit="8" stroke-opacity="1" fill="#F8EFCB" fill-rule="evenodd" fill-opacity="1"/><path d="M683.5 1367C683.5 1365.07 685.067 1363.5 687 1363.5L743 1363.5C744.933 1363.5 746.5 1365.07 746.5 1367L746.5 1381C746.5 1382.93 744.933 1384.5 743 1384.5L687 1384.5C685.067 1384.5 683.5 1382.93 683.5 1381Z" stroke="#274247" stroke-width="3.4375" stroke-linecap="butt" stroke-linejoin="miter" stroke-miterlimit="8" stroke-opacity="1" fill="#E4F5EB" fill-rule="evenodd" fill-opacity="1"/><text fill="#5B7F82" fill-opacity="1" font-family="Roboto Condensed,Roboto Condensed_MSFontService,sans-serif" font-style="normal" font-variant="normal" font-weight="700" font-stretch="condensed" font-size="50" text-anchor="start" direction="ltr" writing-mode="lr-tb" unicode-bidi="normal" text-decoration="none" transform="matrix(1 0 0 1 489.323 1229)">KILDEDATA</text><rect x="1264.5" y="749.5" width="519" height="799" stroke="#274247" stroke-width="3.4375" stroke-linecap="butt" stroke-linejoin="miter" stroke-miterlimit="8" stroke-opacity="1" fill="#C00000" fill-opacity="0.101961"/><text fill="#274247" fill-opacity="1" font-family="Roboto Condensed,Roboto Condensed_MSFontService,sans-serif" font-style="normal" font-variant="normal" font-weight="700" font-stretch="condensed" font-size="73" text-anchor="start" direction="ltr" writing-mode="lr-tb" unicode-bidi="normal" text-decoration="none" transform="matrix(1 0 0 1 1331.6 852)">Produktbøtta</text><path d="M1386.5 1235C1386.5 1097.21 1498.2 985.5 1636 985.5 1773.8 985.5 1885.5 1097.21 1885.5 1235 1885.5 1372.8 1773.8 1484.5 1636 1484.5 1498.2 1484.5 1386.5 1372.8 1386.5 1235Z" stroke="#274247" stroke-width="20.625" stroke-linecap="butt" stroke-linejoin="miter" stroke-miterlimit="8" stroke-opacity="1" fill="#FFFFFF" fill-rule="evenodd" fill-opacity="1"/><path d="M1531.5 1277C1531.5 1275.07 1533.07 1273.5 1535 1273.5L1590 1273.5C1591.93 1273.5 1593.5 1275.07 1593.5 1277L1593.5 1291C1593.5 1292.93 1591.93 1294.5 1590 1294.5L1535 1294.5C1533.07 1294.5 1531.5 1292.93 1531.5 1291Z" stroke="#274247" stroke-width="3.4375" stroke-linecap="butt" stroke-linejoin="miter" stroke-miterlimit="8" stroke-opacity="1" fill="#E9F2F1" fill-rule="evenodd" fill-opacity="1"/><path d="M1604.5 1277C1604.5 1275.07 1606.07 1273.5 1608 1273.5L1663 1273.5C1664.93 1273.5 1666.5 1275.07 1666.5 1277L1666.5 1291C1666.5 1292.93 1664.93 1294.5 1663 1294.5L1608 1294.5C1606.07 1294.5 1604.5 1292.93 1604.5 1291Z" stroke="#274247" stroke-width="3.4375" stroke-linecap="butt" stroke-linejoin="miter" stroke-miterlimit="8" stroke-opacity="1" fill="#C00000" fill-rule="evenodd" fill-opacity="1"/><path d="M1677.5 1277C1677.5 1275.07 1679.07 1273.5 1681 1273.5L1736 1273.5C1737.93 1273.5 1739.5 1275.07 1739.5 1277L1739.5 1291C1739.5 1292.93 1737.93 1294.5 1736 1294.5L1681 1294.5C1679.07 1294.5 1677.5 1292.93 1677.5 1291Z" stroke="#274247" stroke-width="3.4375" stroke-linecap="butt" stroke-linejoin="miter" stroke-miterlimit="8" stroke-opacity="1" fill="#E9F2F1" fill-rule="evenodd" fill-opacity="1"/><path d="M1531.5 1307.83C1531.5 1305.99 1532.99 1304.5 1534.83 1304.5L1590.17 1304.5C1592.01 1304.5 1593.5 1305.99 1593.5 1307.83L1593.5 1321.17C1593.5 1323.01 1592.01 1324.5 1590.17 1324.5L1534.83 1324.5C1532.99 1324.5 1531.5 1323.01 1531.5 1321.17Z" stroke="#274247" stroke-width="3.4375" stroke-linecap="butt" stroke-linejoin="miter" stroke-miterlimit="8" stroke-opacity="1" fill="#E9F2F1" fill-rule="evenodd" fill-opacity="1"/><path d="M1604.5 1307.83C1604.5 1305.99 1605.99 1304.5 1607.83 1304.5L1663.17 1304.5C1665.01 1304.5 1666.5 1305.99 1666.5 1307.83L1666.5 1321.17C1666.5 1323.01 1665.01 1324.5 1663.17 1324.5L1607.83 1324.5C1605.99 1324.5 1604.5 1323.01 1604.5 1321.17Z" stroke="#274247" stroke-width="3.4375" stroke-linecap="butt" stroke-linejoin="miter" stroke-miterlimit="8" stroke-opacity="1" fill="#C00000" fill-rule="evenodd" fill-opacity="1"/><path d="M1531.5 1338C1531.5 1336.07 1533.07 1334.5 1535 1334.5L1590 1334.5C1591.93 1334.5 1593.5 1336.07 1593.5 1338L1593.5 1352C1593.5 1353.93 1591.93 1355.5 1590 1355.5L1535 1355.5C1533.07 1355.5 1531.5 1353.93 1531.5 1352Z" stroke="#274247" stroke-width="3.4375" stroke-linecap="butt" stroke-linejoin="miter" stroke-miterlimit="8" stroke-opacity="1" fill="#E9F2F1" fill-rule="evenodd" fill-opacity="1"/><path d="M1604.5 1338C1604.5 1336.07 1606.07 1334.5 1608 1334.5L1663 1334.5C1664.93 1334.5 1666.5 1336.07 1666.5 1338L1666.5 1352C1666.5 1353.93 1664.93 1355.5 1663 1355.5L1608 1355.5C1606.07 1355.5 1604.5 1353.93 1604.5 1352Z" stroke="#274247" stroke-width="3.4375" stroke-linecap="butt" stroke-linejoin="miter" stroke-miterlimit="8" stroke-opacity="1" fill="#C00000" fill-rule="evenodd" fill-opacity="1"/><path d="M1677.5 1338C1677.5 1336.07 1679.07 1334.5 1681 1334.5L1736 1334.5C1737.93 1334.5 1739.5 1336.07 1739.5 1338L1739.5 1352C1739.5 1353.93 1737.93 1355.5 1736 1355.5L1681 1355.5C1679.07 1355.5 1677.5 1353.93 1677.5 1352Z" stroke="#274247" stroke-width="3.4375" stroke-linecap="butt" stroke-linejoin="miter" stroke-miterlimit="8" stroke-opacity="1" fill="#E9F2F1" fill-rule="evenodd" fill-opacity="1"/><path d="M1531.5 1369C1531.5 1367.07 1533.07 1365.5 1535 1365.5L1590 1365.5C1591.93 1365.5 1593.5 1367.07 1593.5 1369L1593.5 1383C1593.5 1384.93 1591.93 1386.5 1590 1386.5L1535 1386.5C1533.07 1386.5 1531.5 1384.93 1531.5 1383Z" stroke="#274247" stroke-width="3.4375" stroke-linecap="butt" stroke-linejoin="miter" stroke-miterlimit="8" stroke-opacity="1" fill="#E9F2F1" fill-rule="evenodd" fill-opacity="1"/><path d="M1604.5 1369C1604.5 1367.07 1606.07 1365.5 1608 1365.5L1663 1365.5C1664.93 1365.5 1666.5 1367.07 1666.5 1369L1666.5 1383C1666.5 1384.93 1664.93 1386.5 1663 1386.5L1608 1386.5C1606.07 1386.5 1604.5 1384.93 1604.5 1383Z" stroke="#274247" stroke-width="3.4375" stroke-linecap="butt" stroke-linejoin="miter" stroke-miterlimit="8" stroke-opacity="1" fill="#C00000" fill-rule="evenodd" fill-opacity="1"/><path d="M1677.5 1369C1677.5 1367.07 1679.07 1365.5 1681 1365.5L1736 1365.5C1737.93 1365.5 1739.5 1367.07 1739.5 1369L1739.5 1383C1739.5 1384.93 1737.93 1386.5 1736 1386.5L1681 1386.5C1679.07 1386.5 1677.5 1384.93 1677.5 1383Z" stroke="#274247" stroke-width="3.4375" stroke-linecap="butt" stroke-linejoin="miter" stroke-miterlimit="8" stroke-opacity="1" fill="#E9F2F1" fill-rule="evenodd" fill-opacity="1"/><path d="M1677.5 1308C1677.5 1306.07 1679.07 1304.5 1681 1304.5L1736 1304.5C1737.93 1304.5 1739.5 1306.07 1739.5 1308L1739.5 1322C1739.5 1323.93 1737.93 1325.5 1736 1325.5L1681 1325.5C1679.07 1325.5 1677.5 1323.93 1677.5 1322Z" stroke="#274247" stroke-width="3.4375" stroke-linecap="butt" stroke-linejoin="miter" stroke-miterlimit="8" stroke-opacity="1" fill="#E9F2F1" fill-rule="evenodd" fill-opacity="1"/><text fill="#5B7F82" fill-opacity="1" font-family="Roboto Condensed,Roboto Condensed_MSFontService,sans-serif" font-style="normal" font-variant="normal" font-weight="700" font-stretch="condensed" font-size="50" text-anchor="start" direction="ltr" writing-mode="lr-tb" unicode-bidi="normal" text-decoration="none" transform="matrix(1 0 0 1 1527.04 1175)">INNDATA |</text><text fill="#5B7F82" fill-opacity="1" font-family="Roboto Condensed,Roboto Condensed_MSFontService,sans-serif" font-style="normal" font-variant="normal" font-weight="700" font-stretch="condensed" font-size="50" text-anchor="start" direction="ltr" writing-mode="lr-tb" unicode-bidi="normal" text-decoration="none" transform="matrix(1 0 0 1 1433.36 1235)">KLARGJORTE DATA</text><path d="M2643.5 682C2643.5 544.205 2755.21 432.5 2893 432.5 3030.8 432.5 3142.5 544.205 3142.5 682 3142.5 819.795 3030.8 931.5 2893 931.5 2755.21 931.5 2643.5 819.795 2643.5 682Z" stroke="#274247" stroke-width="6.875" stroke-linecap="butt" stroke-linejoin="miter" stroke-miterlimit="8" stroke-opacity="1" fill="#FFFFFF" fill-rule="evenodd" fill-opacity="1"/><path d="M2788.5 723C2788.5 721.067 2790.07 719.5 2792 719.5L2847 719.5C2848.93 719.5 2850.5 721.067 2850.5 723L2850.5 737C2850.5 738.933 2848.93 740.5 2847 740.5L2792 740.5C2790.07 740.5 2788.5 738.933 2788.5 737Z" stroke="#274247" stroke-width="3.4375" stroke-linecap="butt" stroke-linejoin="miter" stroke-miterlimit="8" stroke-opacity="1" fill="#E9F2F1" fill-rule="evenodd" fill-opacity="1"/><path d="M2861.5 723C2861.5 721.067 2863.07 719.5 2865 719.5L2920 719.5C2921.93 719.5 2923.5 721.067 2923.5 723L2923.5 737C2923.5 738.933 2921.93 740.5 2920 740.5L2865 740.5C2863.07 740.5 2861.5 738.933 2861.5 737Z" stroke="#274247" stroke-width="3.4375" stroke-linecap="butt" stroke-linejoin="miter" stroke-miterlimit="8" stroke-opacity="1" fill="#C00000" fill-rule="evenodd" fill-opacity="1"/><path d="M2933.5 723C2933.5 721.067 2935.07 719.5 2937 719.5L2993 719.5C2994.93 719.5 2996.5 721.067 2996.5 723L2996.5 737C2996.5 738.933 2994.93 740.5 2993 740.5L2937 740.5C2935.07 740.5 2933.5 738.933 2933.5 737Z" stroke="#274247" stroke-width="3.4375" stroke-linecap="butt" stroke-linejoin="miter" stroke-miterlimit="8" stroke-opacity="1" fill="#E9F2F1" fill-rule="evenodd" fill-opacity="1"/><path d="M2788.5 754C2788.5 752.067 2790.07 750.5 2792 750.5L2847 750.5C2848.93 750.5 2850.5 752.067 2850.5 754L2850.5 768C2850.5 769.933 2848.93 771.5 2847 771.5L2792 771.5C2790.07 771.5 2788.5 769.933 2788.5 768Z" stroke="#274247" stroke-width="3.4375" stroke-linecap="butt" stroke-linejoin="miter" stroke-miterlimit="8" stroke-opacity="1" fill="#E9F2F1" fill-rule="evenodd" fill-opacity="1"/><path d="M2861.5 754C2861.5 752.067 2863.07 750.5 2865 750.5L2920 750.5C2921.93 750.5 2923.5 752.067 2923.5 754L2923.5 768C2923.5 769.933 2921.93 771.5 2920 771.5L2865 771.5C2863.07 771.5 2861.5 769.933 2861.5 768Z" stroke="#274247" stroke-width="3.4375" stroke-linecap="butt" stroke-linejoin="miter" stroke-miterlimit="8" stroke-opacity="1" fill="#C00000" fill-rule="evenodd" fill-opacity="1"/><path d="M2788.5 785C2788.5 783.067 2790.07 781.5 2792 781.5L2847 781.5C2848.93 781.5 2850.5 783.067 2850.5 785L2850.5 799C2850.5 800.933 2848.93 802.5 2847 802.5L2792 802.5C2790.07 802.5 2788.5 800.933 2788.5 799Z" stroke="#274247" stroke-width="3.4375" stroke-linecap="butt" stroke-linejoin="miter" stroke-miterlimit="8" stroke-opacity="1" fill="#E9F2F1" fill-rule="evenodd" fill-opacity="1"/><path d="M2861.5 785C2861.5 783.067 2863.07 781.5 2865 781.5L2920 781.5C2921.93 781.5 2923.5 783.067 2923.5 785L2923.5 799C2923.5 800.933 2921.93 802.5 2920 802.5L2865 802.5C2863.07 802.5 2861.5 800.933 2861.5 799Z" stroke="#274247" stroke-width="3.4375" stroke-linecap="butt" stroke-linejoin="miter" stroke-miterlimit="8" stroke-opacity="1" fill="#C00000" fill-rule="evenodd" fill-opacity="1"/><path d="M2933.5 785C2933.5 783.067 2935.07 781.5 2937 781.5L2993 781.5C2994.93 781.5 2996.5 783.067 2996.5 785L2996.5 799C2996.5 800.933 2994.93 802.5 2993 802.5L2937 802.5C2935.07 802.5 2933.5 800.933 2933.5 799Z" stroke="#274247" stroke-width="3.4375" stroke-linecap="butt" stroke-linejoin="miter" stroke-miterlimit="8" stroke-opacity="1" fill="#E9F2F1" fill-rule="evenodd" fill-opacity="1"/><path d="M2788.5 815.833C2788.5 813.993 2789.99 812.5 2791.83 812.5L2847.17 812.5C2849.01 812.5 2850.5 813.993 2850.5 815.833L2850.5 829.167C2850.5 831.008 2849.01 832.5 2847.17 832.5L2791.83 832.5C2789.99 832.5 2788.5 831.008 2788.5 829.167Z" stroke="#274247" stroke-width="3.4375" stroke-linecap="butt" stroke-linejoin="miter" stroke-miterlimit="8" stroke-opacity="1" fill="#E9F2F1" fill-rule="evenodd" fill-opacity="1"/><path d="M2861.5 815.833C2861.5 813.993 2862.99 812.5 2864.83 812.5L2920.17 812.5C2922.01 812.5 2923.5 813.993 2923.5 815.833L2923.5 829.167C2923.5 831.008 2922.01 832.5 2920.17 832.5L2864.83 832.5C2862.99 832.5 2861.5 831.008 2861.5 829.167Z" stroke="#274247" stroke-width="3.4375" stroke-linecap="butt" stroke-linejoin="miter" stroke-miterlimit="8" stroke-opacity="1" fill="#C00000" fill-rule="evenodd" fill-opacity="1"/><path d="M2933.5 815.833C2933.5 813.993 2934.99 812.5 2936.83 812.5L2993.17 812.5C2995.01 812.5 2996.5 813.993 2996.5 815.833L2996.5 829.167C2996.5 831.008 2995.01 832.5 2993.17 832.5L2936.83 832.5C2934.99 832.5 2933.5 831.008 2933.5 829.167Z" stroke="#274247" stroke-width="3.4375" stroke-linecap="butt" stroke-linejoin="miter" stroke-miterlimit="8" stroke-opacity="1" fill="#E9F2F1" fill-rule="evenodd" fill-opacity="1"/><path d="M2933.5 754C2933.5 752.067 2935.07 750.5 2937 750.5L2993 750.5C2994.93 750.5 2996.5 752.067 2996.5 754L2996.5 768C2996.5 769.933 2994.93 771.5 2993 771.5L2937 771.5C2935.07 771.5 2933.5 769.933 2933.5 768Z" stroke="#274247" stroke-width="3.4375" stroke-linecap="butt" stroke-linejoin="miter" stroke-miterlimit="8" stroke-opacity="1" fill="#E9F2F1" fill-rule="evenodd" fill-opacity="1"/><text fill="#5B7F82" fill-opacity="1" font-family="Roboto Condensed,Roboto Condensed_MSFontService,sans-serif" font-style="normal" font-variant="normal" font-weight="700" font-stretch="condensed" font-size="50" text-anchor="start" direction="ltr" writing-mode="lr-tb" unicode-bidi="normal" text-decoration="none" transform="matrix(1 0 0 1 2783.71 622)">INNDATA |</text><text fill="#5B7F82" fill-opacity="1" font-family="Roboto Condensed,Roboto Condensed_MSFontService,sans-serif" font-style="normal" font-variant="normal" font-weight="700" font-stretch="condensed" font-size="50" text-anchor="start" direction="ltr" writing-mode="lr-tb" unicode-bidi="normal" text-decoration="none" transform="matrix(1 0 0 1 2690.02 682)">KLARGJORTE DATA</text><path d="M2643.5 1798C2643.5 1660.21 2755.21 1548.5 2893 1548.5 3030.8 1548.5 3142.5 1660.21 3142.5 1798 3142.5 1935.79 3030.8 2047.5 2893 2047.5 2755.21 2047.5 2643.5 1935.79 2643.5 1798Z" stroke="#274247" stroke-width="20.625" stroke-linecap="butt" stroke-linejoin="miter" stroke-miterlimit="8" stroke-opacity="1" fill="#FFFFFF" fill-rule="evenodd" fill-opacity="1"/><path d="M2788.5 1840C2788.5 1838.07 2790.07 1836.5 2792 1836.5L2847 1836.5C2848.93 1836.5 2850.5 1838.07 2850.5 1840L2850.5 1854C2850.5 1855.93 2848.93 1857.5 2847 1857.5L2792 1857.5C2790.07 1857.5 2788.5 1855.93 2788.5 1854Z" stroke="#274247" stroke-width="3.4375" stroke-linecap="butt" stroke-linejoin="miter" stroke-miterlimit="8" stroke-opacity="1" fill="#E9F2F1" fill-rule="evenodd" fill-opacity="1"/><path d="M2861.5 1840C2861.5 1838.07 2863.07 1836.5 2865 1836.5L2920 1836.5C2921.93 1836.5 2923.5 1838.07 2923.5 1840L2923.5 1854C2923.5 1855.93 2921.93 1857.5 2920 1857.5L2865 1857.5C2863.07 1857.5 2861.5 1855.93 2861.5 1854Z" stroke="#274247" stroke-width="3.4375" stroke-linecap="butt" stroke-linejoin="miter" stroke-miterlimit="8" stroke-opacity="1" fill="#1A9D49" fill-rule="evenodd" fill-opacity="1"/><path d="M2933.5 1840C2933.5 1838.07 2935.07 1836.5 2937 1836.5L2993 1836.5C2994.93 1836.5 2996.5 1838.07 2996.5 1840L2996.5 1854C2996.5 1855.93 2994.93 1857.5 2993 1857.5L2937 1857.5C2935.07 1857.5 2933.5 1855.93 2933.5 1854Z" stroke="#274247" stroke-width="3.4375" stroke-linecap="butt" stroke-linejoin="miter" stroke-miterlimit="8" stroke-opacity="1" fill="#E9F2F1" fill-rule="evenodd" fill-opacity="1"/><path d="M2788.5 1871C2788.5 1869.07 2790.07 1867.5 2792 1867.5L2847 1867.5C2848.93 1867.5 2850.5 1869.07 2850.5 1871L2850.5 1885C2850.5 1886.93 2848.93 1888.5 2847 1888.5L2792 1888.5C2790.07 1888.5 2788.5 1886.93 2788.5 1885Z" stroke="#274247" stroke-width="3.4375" stroke-linecap="butt" stroke-linejoin="miter" stroke-miterlimit="8" stroke-opacity="1" fill="#E9F2F1" fill-rule="evenodd" fill-opacity="1"/><path d="M2861.5 1871C2861.5 1869.07 2863.07 1867.5 2865 1867.5L2920 1867.5C2921.93 1867.5 2923.5 1869.07 2923.5 1871L2923.5 1885C2923.5 1886.93 2921.93 1888.5 2920 1888.5L2865 1888.5C2863.07 1888.5 2861.5 1886.93 2861.5 1885Z" stroke="#274247" stroke-width="3.4375" stroke-linecap="butt" stroke-linejoin="miter" stroke-miterlimit="8" stroke-opacity="1" fill="#1A9D49" fill-rule="evenodd" fill-opacity="1"/><path d="M2788.5 1901C2788.5 1899.07 2790.07 1897.5 2792 1897.5L2847 1897.5C2848.93 1897.5 2850.5 1899.07 2850.5 1901L2850.5 1915C2850.5 1916.93 2848.93 1918.5 2847 1918.5L2792 1918.5C2790.07 1918.5 2788.5 1916.93 2788.5 1915Z" stroke="#274247" stroke-width="3.4375" stroke-linecap="butt" stroke-linejoin="miter" stroke-miterlimit="8" stroke-opacity="1" fill="#E9F2F1" fill-rule="evenodd" fill-opacity="1"/><path d="M2861.5 1901C2861.5 1899.07 2863.07 1897.5 2865 1897.5L2920 1897.5C2921.93 1897.5 2923.5 1899.07 2923.5 1901L2923.5 1915C2923.5 1916.93 2921.93 1918.5 2920 1918.5L2865 1918.5C2863.07 1918.5 2861.5 1916.93 2861.5 1915Z" stroke="#274247" stroke-width="3.4375" stroke-linecap="butt" stroke-linejoin="miter" stroke-miterlimit="8" stroke-opacity="1" fill="#1A9D49" fill-rule="evenodd" fill-opacity="1"/><path d="M2933.5 1901C2933.5 1899.07 2935.07 1897.5 2937 1897.5L2993 1897.5C2994.93 1897.5 2996.5 1899.07 2996.5 1901L2996.5 1915C2996.5 1916.93 2994.93 1918.5 2993 1918.5L2937 1918.5C2935.07 1918.5 2933.5 1916.93 2933.5 1915Z" stroke="#274247" stroke-width="3.4375" stroke-linecap="butt" stroke-linejoin="miter" stroke-miterlimit="8" stroke-opacity="1" fill="#E9F2F1" fill-rule="evenodd" fill-opacity="1"/><path d="M2788.5 1932C2788.5 1930.07 2790.07 1928.5 2792 1928.5L2847 1928.5C2848.93 1928.5 2850.5 1930.07 2850.5 1932L2850.5 1946C2850.5 1947.93 2848.93 1949.5 2847 1949.5L2792 1949.5C2790.07 1949.5 2788.5 1947.93 2788.5 1946Z" stroke="#274247" stroke-width="3.4375" stroke-linecap="butt" stroke-linejoin="miter" stroke-miterlimit="8" stroke-opacity="1" fill="#E9F2F1" fill-rule="evenodd" fill-opacity="1"/><path d="M2861.5 1932C2861.5 1930.07 2863.07 1928.5 2865 1928.5L2920 1928.5C2921.93 1928.5 2923.5 1930.07 2923.5 1932L2923.5 1946C2923.5 1947.93 2921.93 1949.5 2920 1949.5L2865 1949.5C2863.07 1949.5 2861.5 1947.93 2861.5 1946Z" stroke="#274247" stroke-width="3.4375" stroke-linecap="butt" stroke-linejoin="miter" stroke-miterlimit="8" stroke-opacity="1" fill="#1A9D49" fill-rule="evenodd" fill-opacity="1"/><path d="M2933.5 1932C2933.5 1930.07 2935.07 1928.5 2937 1928.5L2993 1928.5C2994.93 1928.5 2996.5 1930.07 2996.5 1932L2996.5 1946C2996.5 1947.93 2994.93 1949.5 2993 1949.5L2937 1949.5C2935.07 1949.5 2933.5 1947.93 2933.5 1946Z" stroke="#274247" stroke-width="3.4375" stroke-linecap="butt" stroke-linejoin="miter" stroke-miterlimit="8" stroke-opacity="1" fill="#E9F2F1" fill-rule="evenodd" fill-opacity="1"/><path d="M2933.5 1871C2933.5 1869.07 2935.07 1867.5 2937 1867.5L2993 1867.5C2994.93 1867.5 2996.5 1869.07 2996.5 1871L2996.5 1885C2996.5 1886.93 2994.93 1888.5 2993 1888.5L2937 1888.5C2935.07 1888.5 2933.5 1886.93 2933.5 1885Z" stroke="#274247" stroke-width="3.4375" stroke-linecap="butt" stroke-linejoin="miter" stroke-miterlimit="8" stroke-opacity="1" fill="#E9F2F1" fill-rule="evenodd" fill-opacity="1"/><text fill="#5B7F82" fill-opacity="1" font-family="Roboto Condensed,Roboto Condensed_MSFontService,sans-serif" font-style="normal" font-variant="normal" font-weight="700" font-stretch="condensed" font-size="50" text-anchor="start" direction="ltr" writing-mode="lr-tb" unicode-bidi="normal" text-decoration="none" transform="matrix(1 0 0 1 2783.71 1738)">INNDATA |</text><text fill="#5B7F82" fill-opacity="1" font-family="Roboto Condensed,Roboto Condensed_MSFontService,sans-serif" font-style="normal" font-variant="normal" font-weight="700" font-stretch="condensed" font-size="50" text-anchor="start" direction="ltr" writing-mode="lr-tb" unicode-bidi="normal" text-decoration="none" transform="matrix(1 0 0 1 2690.02 1798)">KLARGJORTE DATA</text><path d="M0 0 790.572 351.507" stroke="#274247" stroke-width="6.875" stroke-linecap="butt" stroke-linejoin="miter" stroke-miterlimit="8" stroke-opacity="1" fill="none" fill-rule="evenodd" transform="matrix(1 0 0 -1 1872.5 1133.01)"/><path d="M1856.5 1349.5 2655.27 1689.15" stroke="#274247" stroke-width="20.625" stroke-linecap="butt" stroke-linejoin="miter" stroke-miterlimit="8" stroke-opacity="1" fill="none" fill-rule="evenodd"/><path d="M1172.5 474.5 1172.5 1877.26" stroke="#274247" stroke-width="3.4375" stroke-linecap="butt" stroke-linejoin="miter" stroke-miterlimit="8" stroke-dasharray="13.75 10.3125" stroke-opacity="1" fill="none" fill-rule="evenodd"/><path d="M848.5 1232.5 1386.82 1234.77" stroke="#274247" stroke-width="6.875" stroke-linecap="butt" stroke-linejoin="miter" stroke-miterlimit="8" stroke-opacity="1" fill="none" fill-rule="evenodd"/><text fill="#1A9D49" fill-opacity="1" font-family="Open Sans,Open Sans_MSFontService,sans-serif" font-style="normal" font-variant="normal" font-weight="400" font-stretch="normal" font-size="64" text-anchor="start" direction="ltr" writing-mode="lr-tb" unicode-bidi="normal" text-decoration="none" transform="matrix(1 0 0 1 866.763 1177)">Kildomaten</text><text fill="#1A9D49" fill-opacity="1" font-family="Open Sans,Open Sans_MSFontService,sans-serif" font-style="normal" font-variant="normal" font-weight="400" font-stretch="normal" font-size="64" text-anchor="start" direction="ltr" writing-mode="lr-tb" unicode-bidi="normal" text-decoration="none" transform="matrix(0.918144 0.396246 -0.396246 0.918144 2054.29 1356)">Delomaten</text><path d="M3598 528.5C3598 540.927 3587.93 551 3575.5 551 3563.07 551 3553 540.927 3553 528.5 3553 516.074 3563.07 506 3575.5 506 3587.93 506 3598 516.074 3598 528.5Z" fill="#FFFFFF" fill-rule="evenodd" fill-opacity="1"/><path d="M3575.92 553.224C3589.72 553.198 3600.9 542.014 3600.92 528.224 3600.9 514.435 3589.72 503.251 3575.92 503.224 3562.12 503.251 3550.93 514.435 3550.92 528.224 3550.93 542.014 3562.12 553.198 3575.92 553.224ZM3575.92 505.856C3588.27 505.882 3598.27 515.882 3598.29 528.224 3598.27 540.567 3588.27 550.567 3575.92 550.593 3563.57 550.567 3553.57 540.567 3553.55 528.224 3553.57 515.882 3563.57 505.882 3575.92 505.856Z" fill="#274247" fill-rule="evenodd" fill-opacity="1"/><path d="M3546 640 3606 640 3606 653 3546 653Z" fill="#274247" fill-rule="evenodd" fill-opacity="1"/><path d="M3598.02 556.223 3575.52 581.265 3552.97 556.223C3551.89 556.406 3523.92 562.038 3523.92 575.476L3523.92 631.557 3542.4 652.224 3542.4 599.338C3542.4 598.605 3543 598.029 3543.73 598.029 3544.45 598.029 3545.05 598.605 3545.05 599.338L3545.05 637.319 3605.79 637.319 3605.79 599.338C3605.79 598.605 3606.38 598.029 3607.11 598.029 3607.84 598.029 3608.43 598.605 3608.43 599.338L3608.43 652.119 3626.92 631.452 3626.92 575.371C3627.08 562.038 3599.19 556.406 3598.02 556.223Z" fill="#C00000" fill-rule="evenodd" fill-opacity="1"/><text fill="#274247" fill-opacity="1" font-family="Roboto Condensed,Roboto Condensed_MSFontService,sans-serif" font-style="normal" font-variant="normal" font-weight="700" font-stretch="condensed" font-size="73" text-anchor="start" direction="ltr" writing-mode="lr-tb" unicode-bidi="normal" text-decoration="none" transform="matrix(1 0 0 1 3654.45 631)">Team B</text><path d="M226.5 2285C226.5 2283.07 228.067 2281.5 230 2281.5L285 2281.5C286.933 2281.5 288.5 2283.07 288.5 2285L288.5 2299C288.5 2300.93 286.933 2302.5 285 2302.5L230 2302.5C228.067 2302.5 226.5 2300.93 226.5 2299Z" stroke="#274247" stroke-width="3.4375" stroke-linecap="butt" stroke-linejoin="miter" stroke-miterlimit="8" stroke-opacity="1" fill="#C00000" fill-rule="evenodd" fill-opacity="1"/><path d="M226.5 2316C226.5 2314.07 228.067 2312.5 230 2312.5L285 2312.5C286.933 2312.5 288.5 2314.07 288.5 2316L288.5 2330C288.5 2331.93 286.933 2333.5 285 2333.5L230 2333.5C228.067 2333.5 226.5 2331.93 226.5 2330Z" stroke="#274247" stroke-width="3.4375" stroke-linecap="butt" stroke-linejoin="miter" stroke-miterlimit="8" stroke-opacity="1" fill="#C00000" fill-rule="evenodd" fill-opacity="1"/><path d="M226.5 2346.83C226.5 2344.99 227.992 2343.5 229.833 2343.5L285.166 2343.5C287.007 2343.5 288.5 2344.99 288.5 2346.83L288.5 2360.17C288.5 2362.01 287.007 2363.5 285.166 2363.5L229.833 2363.5C227.992 2363.5 226.5 2362.01 226.5 2360.17Z" stroke="#274247" stroke-width="3.4375" stroke-linecap="butt" stroke-linejoin="miter" stroke-miterlimit="8" stroke-opacity="1" fill="#C00000" fill-rule="evenodd" fill-opacity="1"/><path d="M226.5 2377C226.5 2375.07 228.067 2373.5 230 2373.5L285 2373.5C286.933 2373.5 288.5 2375.07 288.5 2377L288.5 2391C288.5 2392.93 286.933 2394.5 285 2394.5L230 2394.5C228.067 2394.5 226.5 2392.93 226.5 2391Z" stroke="#274247" stroke-width="3.4375" stroke-linecap="butt" stroke-linejoin="miter" stroke-miterlimit="8" stroke-opacity="1" fill="#C00000" fill-rule="evenodd" fill-opacity="1"/><text fill="#274247" fill-opacity="1" font-family="Roboto Condensed,Roboto Condensed_MSFontService,sans-serif" font-style="normal" font-variant="normal" font-weight="700" font-stretch="condensed" font-size="73" text-anchor="start" direction="ltr" writing-mode="lr-tb" unicode-bidi="normal" text-decoration="none" transform="matrix(1 0 0 1 342.248 2363)">Pseudonymiserte data</text><path d="M226.5 2127.83C226.5 2125.99 227.992 2124.5 229.833 2124.5L285.166 2124.5C287.007 2124.5 288.5 2125.99 288.5 2127.83L288.5 2141.17C288.5 2143.01 287.007 2144.5 285.166 2144.5L229.833 2144.5C227.992 2144.5 226.5 2143.01 226.5 2141.17Z" stroke="#274247" stroke-width="3.4375" stroke-linecap="butt" stroke-linejoin="miter" stroke-miterlimit="8" stroke-opacity="1" fill="#1A9D49" fill-rule="evenodd" fill-opacity="1"/><path d="M226.5 2158C226.5 2156.07 228.067 2154.5 230 2154.5L285 2154.5C286.933 2154.5 288.5 2156.07 288.5 2158L288.5 2172C288.5 2173.93 286.933 2175.5 285 2175.5L230 2175.5C228.067 2175.5 226.5 2173.93 226.5 2172Z" stroke="#274247" stroke-width="3.4375" stroke-linecap="butt" stroke-linejoin="miter" stroke-miterlimit="8" stroke-opacity="1" fill="#1A9D49" fill-rule="evenodd" fill-opacity="1"/><path d="M226.5 2189C226.5 2187.07 228.067 2185.5 230 2185.5L285 2185.5C286.933 2185.5 288.5 2187.07 288.5 2189L288.5 2203C288.5 2204.93 286.933 2206.5 285 2206.5L230 2206.5C228.067 2206.5 226.5 2204.93 226.5 2203Z" stroke="#274247" stroke-width="3.4375" stroke-linecap="butt" stroke-linejoin="miter" stroke-miterlimit="8" stroke-opacity="1" fill="#1A9D49" fill-rule="evenodd" fill-opacity="1"/><path d="M226.5 2220C226.5 2218.07 228.067 2216.5 230 2216.5L285 2216.5C286.933 2216.5 288.5 2218.07 288.5 2220L288.5 2234C288.5 2235.93 286.933 2237.5 285 2237.5L230 2237.5C228.067 2237.5 226.5 2235.93 226.5 2234Z" stroke="#274247" stroke-width="3.4375" stroke-linecap="butt" stroke-linejoin="miter" stroke-miterlimit="8" stroke-opacity="1" fill="#1A9D49" fill-rule="evenodd" fill-opacity="1"/><text fill="#274247" fill-opacity="1" font-family="Roboto Condensed,Roboto Condensed_MSFontService,sans-serif" font-style="normal" font-variant="normal" font-weight="700" font-stretch="condensed" font-size="73" text-anchor="start" direction="ltr" writing-mode="lr-tb" unicode-bidi="normal" text-decoration="none" transform="matrix(1 0 0 1 342.248 2210)">Ikke pseudonymiserte data</text><rect x="133.5" y="81.5" width="3089" height="2355" stroke="#274247" stroke-width="6.875" stroke-linecap="butt" stroke-linejoin="miter" stroke-miterlimit="8" stroke-opacity="1" fill="none"/><text fill="#274247" fill-opacity="1" font-family="Roboto Condensed,Roboto Condensed_MSFontService,sans-serif" font-style="normal" font-variant="normal" font-weight="700" font-stretch="condensed" font-size="147" text-anchor="start" direction="ltr" writing-mode="lr-tb" unicode-bidi="normal" text-decoration="none" transform="matrix(1 0 0 1 259.115 266)">Team </text><text fill="#274247" fill-opacity="1" font-family="Roboto Condensed,Roboto Condensed_MSFontService,sans-serif" font-style="normal" font-variant="normal" font-weight="700" font-stretch="condensed" font-size="147" text-anchor="start" direction="ltr" writing-mode="lr-tb" unicode-bidi="normal" text-decoration="none" transform="matrix(1 0 0 1 621.198 266)">A</text><path d="M3598 704.5C3598 716.927 3587.93 727 3575.5 727 3563.07 727 3553 716.927 3553 704.5 3553 692.074 3563.07 682 3575.5 682 3587.93 682 3598 692.074 3598 704.5Z" fill="#FFFFFF" fill-rule="evenodd" fill-opacity="1"/><path d="M3575.92 729.22C3589.72 729.194 3600.9 718.234 3600.92 704.72 3600.9 691.206 3589.72 680.246 3575.92 680.22 3562.12 680.246 3550.93 691.206 3550.92 704.72 3550.93 718.234 3562.12 729.194 3575.92 729.22ZM3575.92 682.799C3588.27 682.825 3598.27 692.625 3598.29 704.72 3598.27 716.815 3588.27 726.615 3575.92 726.641 3563.57 726.615 3553.57 716.815 3553.55 704.72 3553.57 692.625 3563.57 682.825 3575.92 682.799Z" fill="#274247" fill-rule="evenodd" fill-opacity="1"/><path d="M3546 816 3606 816 3606 829 3546 829Z" fill="#274247" fill-rule="evenodd" fill-opacity="1"/><path d="M3598.02 732.223 3575.52 757.265 3552.97 732.223C3551.89 732.406 3523.92 738.038 3523.92 751.476L3523.92 807.557 3542.4 828.224 3542.4 775.338C3542.4 774.605 3543 774.029 3543.73 774.029 3544.45 774.029 3545.05 774.605 3545.05 775.338L3545.05 813.319 3605.79 813.319 3605.79 775.338C3605.79 774.605 3606.38 774.029 3607.11 774.029 3607.84 774.029 3608.43 774.605 3608.43 775.338L3608.43 828.119 3626.92 807.452 3626.92 751.371C3627.08 738.038 3599.19 732.406 3598.02 732.223Z" fill="#C00000" fill-rule="evenodd" fill-opacity="1"/><text fill="#274247" fill-opacity="1" font-family="Roboto Condensed,Roboto Condensed_MSFontService,sans-serif" font-style="normal" font-variant="normal" font-weight="700" font-stretch="condensed" font-size="73" text-anchor="start" direction="ltr" writing-mode="lr-tb" unicode-bidi="normal" text-decoration="none" transform="matrix(1 0 0 1 3654.45 807)">Team C</text><path d="M3600 1748C3600 1760.15 3590.15 1770 3578 1770 3565.85 1770 3556 1760.15 3556 1748 3556 1735.85 3565.85 1726 3578 1726 3590.15 1726 3600 1735.85 3600 1748Z" fill="#FFFFFF" fill-rule="evenodd" fill-opacity="1"/><path d="M3577.92 1773.22C3591.72 1773.2 3602.9 1762.01 3602.92 1748.22 3602.9 1734.43 3591.72 1723.25 3577.92 1723.22 3564.12 1723.25 3552.93 1734.43 3552.92 1748.22 3552.93 1762.01 3564.12 1773.2 3577.92 1773.22ZM3577.92 1725.86C3590.27 1725.88 3600.27 1735.88 3600.29 1748.22 3600.27 1760.57 3590.27 1770.57 3577.92 1770.59 3565.57 1770.57 3555.57 1760.57 3555.55 1748.22 3555.57 1735.88 3565.57 1725.88 3577.92 1725.86Z" fill="#274247" fill-rule="evenodd" fill-opacity="1"/><path d="M3548 1860 3608 1860 3608 1873 3548 1873Z" fill="#274247" fill-rule="evenodd" fill-opacity="1"/><path d="M3600.31 1776.22 3578.02 1801.26 3555.69 1776.22C3554.61 1776.41 3526.92 1782.04 3526.92 1795.48L3526.92 1851.56 3545.23 1872.22 3545.23 1819.34C3545.23 1818.6 3545.81 1818.03 3546.53 1818.03 3547.26 1818.03 3547.84 1818.6 3547.84 1819.34L3547.84 1857.32 3607.99 1857.32 3607.99 1819.34C3607.99 1818.6 3608.58 1818.03 3609.3 1818.03 3610.02 1818.03 3610.61 1818.6 3610.61 1819.34L3610.61 1872.12 3628.92 1851.45 3628.92 1795.37C3629.07 1782.04 3601.46 1776.41 3600.31 1776.22Z" fill="#1A9D49" fill-rule="evenodd" fill-opacity="1"/><text fill="#274247" fill-opacity="1" font-family="Roboto Condensed,Roboto Condensed_MSFontService,sans-serif" font-style="normal" font-variant="normal" font-weight="700" font-stretch="condensed" font-size="73" text-anchor="start" direction="ltr" writing-mode="lr-tb" unicode-bidi="normal" text-decoration="none" transform="matrix(1 0 0 1 3654.45 1844)">Team D</text><path d="M2430.5 1258.5 2430.5 2216.05" stroke="#274247" stroke-width="3.4375" stroke-linecap="butt" stroke-linejoin="miter" stroke-miterlimit="8" stroke-dasharray="13.75 10.3125" stroke-opacity="1" fill="none" fill-rule="evenodd"/><path d="M3122.5 787.5 3490.75 788.083" stroke="#274247" stroke-width="6.875" stroke-linecap="butt" stroke-linejoin="miter" stroke-miterlimit="8" stroke-opacity="1" fill="none" fill-rule="evenodd"/><path d="M3128.5 609.5 3496.75 609.5" stroke="#274247" stroke-width="6.875" stroke-linecap="butt" stroke-linejoin="miter" stroke-miterlimit="8" stroke-opacity="1" fill="none" fill-rule="evenodd"/><path d="M3128.5 1819.5 3496.75 1819.5" stroke="#274247" stroke-width="6.875" stroke-linecap="butt" stroke-linejoin="miter" stroke-miterlimit="8" stroke-opacity="1" fill="none" fill-rule="evenodd"/><path d="M2091.54 2020.75 2102.02 2002.99 2107.94 2006.48 2097.46 2024.25ZM2105.51 1997.07 2114 1982.68 2116.04 1979.29 2121.93 1982.84 2119.9 1986.21 2119.91 1986.19 2111.43 2000.56ZM2119.58 1973.4 2130.21 1955.73 2136.11 1959.28 2125.47 1976.95ZM2133.76 1949.84 2136.52 1945.26 2144.58 1932.23 2150.42 1935.85 2142.38 1948.85 2142.4 1948.82 2139.65 1953.39ZM2148.22 1926.36 2159.17 1909.12 2159.31 1908.91 2165.06 1912.68 2164.94 1912.86 2164.96 1912.82 2154.03 1930.04ZM2163.08 1903.16 2170.56 1891.74 2174.53 1885.93 2180.21 1889.8 2176.26 1895.59 2176.3 1895.54 2168.83 1906.93ZM2178.4 1880.24 2182.01 1874.94 2190.3 1863.31 2195.9 1867.3 2187.63 1878.9 2187.67 1878.84 2184.08 1884.11ZM2194.37 1857.66 2205.09 1843.39 2206.88 1841.14 2212.25 1845.43 2210.49 1847.64 2210.55 1847.56 2199.86 1861.79ZM2211.17 1835.77 2216.74 1828.8 2224.44 1819.83 2229.66 1824.3 2222 1833.23 2222.07 1833.14 2216.54 1840.06ZM2229.03 1814.52 2240.32 1802.41 2243.35 1799.45 2248.15 1804.38 2245.18 1807.27 2245.29 1807.16 2234.06 1819.21ZM2248.28 1794.66 2252.27 1790.77 2263.78 1780.77 2268.29 1785.96 2256.85 1795.89 2257 1795.76 2253.08 1799.58ZM2269.41 1776.44 2276.55 1771.03 2286.58 1764.57 2290.3 1770.35 2280.38 1776.74 2280.6 1776.59 2273.56 1781.92ZM2292.77 1761 2301.34 1756.4 2311.57 1751.92 2314.33 1758.21 2304.23 1762.64 2304.48 1762.52 2296.02 1767.06ZM2318.25 1749.38 2326.54 1746.5 2338.24 1743.39 2340 1750.03 2328.43 1753.11 2328.67 1753.03 2320.51 1755.88ZM2345.21 1741.98 2352.02 1740.67 2364.84 1739.08 2366.04 1739 2366.48 1745.86 2365.39 1745.93 2365.59 1745.91 2352.98 1747.48 2353.2 1747.45 2346.5 1748.73ZM2372.9 1738.55 2377.7 1738.24 2390.58 1738.08 2393.85 1738.19 2393.62 1745.06 2390.43 1744.95 2390.59 1744.95 2377.87 1745.11 2378.05 1745.11 2373.34 1745.41ZM2400.72 1738.42 2403.49 1738.51 2416.42 1739.44 2421.52 1739.97 2420.81 1746.81 2415.76 1746.28 2415.87 1746.29 2403.07 1745.37 2403.2 1745.38 2400.49 1745.29ZM2428.36 1740.68 2429.37 1740.79 2448.91 1743.51 2447.96 1750.32 2428.48 1747.6 2428.6 1747.62 2427.65 1747.52ZM2455.8 1744.48 2474.07 1747.49 2472.95 1754.28 2454.68 1751.27ZM2438.67 1718.87 2480.5 1752.04 2430.24 1770.03C2428.46 1770.67 2426.49 1769.74 2425.85 1767.95 2425.21 1766.16 2426.14 1764.19 2427.93 1763.55L2472.35 1747.65 2471.38 1753.58 2434.4 1724.26C2432.91 1723.08 2432.67 1720.92 2433.84 1719.43 2435.02 1717.94 2437.19 1717.69 2438.67 1718.87Z" fill="#274247" fill-rule="nonzero" fill-opacity="1"/><text fill="#274247" fill-opacity="1" font-family="Open Sans,Open Sans_MSFontService,sans-serif" font-style="normal" font-variant="normal" font-weight="400" font-stretch="normal" font-size="64" text-anchor="start" direction="ltr" writing-mode="lr-tb" unicode-bidi="normal" text-decoration="none" transform="matrix(1 0 0 1 1650.49 2107)">Team A har </text><text fill="#274247" fill-opacity="1" font-family="Open Sans,Open Sans_MSFontService,sans-serif" font-style="normal" font-variant="normal" font-weight="400" font-stretch="normal" font-size="64" text-anchor="start" direction="ltr" writing-mode="lr-tb" unicode-bidi="normal" text-decoration="none" transform="matrix(1 0 0 1 2009.13 2107)">IKKE</text><text fill="#274247" fill-opacity="1" font-family="Open Sans,Open Sans_MSFontService,sans-serif" font-style="normal" font-variant="normal" font-weight="400" font-stretch="normal" font-size="64" text-anchor="start" direction="ltr" writing-mode="lr-tb" unicode-bidi="normal" text-decoration="none" transform="matrix(1 0 0 1 2158.09 2107)">tilgang </text><text fill="#274247" fill-opacity="1" font-family="Open Sans,Open Sans_MSFontService,sans-serif" font-style="normal" font-variant="normal" font-weight="400" font-stretch="normal" font-size="64" text-anchor="start" direction="ltr" writing-mode="lr-tb" unicode-bidi="normal" text-decoration="none" transform="matrix(1 0 0 1 1650.49 2184)">til data her</text></g></g></svg>