<svg width="4019" height="2365" xmlns="http://www.w3.org/2000/svg" xmlns:xlink="http://www.w3.org/1999/xlink" xml:space="preserve" overflow="hidden"><g transform="translate(-128 -77)"><g><path d="M1858 1343 2656.77 1682.65" stroke="#D9D9D9" stroke-width="91.6667" stroke-linecap="butt" stroke-linejoin="miter" stroke-miterlimit="8" stroke-opacity="1" fill="none" fill-rule="evenodd"/><path d="M848.5 1232.5 1386.82 1234.77" stroke="#D9D9D9" stroke-width="73.3333" stroke-linecap="butt" stroke-linejoin="miter" stroke-miterlimit="8" stroke-opacity="1" fill="none" fill-rule="evenodd"/><rect x="2528.5" y="1317.5" width="520" height="799" stroke="#274247" stroke-width="3.4375" stroke-linecap="butt" stroke-linejoin="miter" stroke-miterlimit="8" stroke-opacity="1" fill="#1A9D49" fill-opacity="0.101961"/><text fill="#274247" fill-opacity="1" font-family="Roboto Condensed,Roboto Condensed_MSFontService,sans-serif" font-style="normal" font-variant="normal" font-weight="700" font-stretch="condensed" font-size="73" text-anchor="start" direction="ltr" writing-mode="lr-tb" unicode-bidi="normal" text-decoration="none" transform="matrix(1 0 0 1 2640.27 1419)">Delt</text><text fill="#274247" fill-opacity="1" font-family="Roboto Condensed,Roboto Condensed_MSFontService,sans-serif" font-style="normal" font-variant="normal" font-weight="700" font-stretch="condensed" font-size="73" text-anchor="start" direction="ltr" writing-mode="lr-tb" unicode-bidi="normal" text-decoration="none" transform="matrix(1 0 0 1 2757.15 1419)">-</text><text fill="#274247" fill-opacity="1" font-family="Roboto Condensed,Roboto Condensed_MSFontService,sans-serif" font-style="normal" font-variant="normal" font-weight="700" font-stretch="condensed" font-size="73" text-anchor="start" direction="ltr" writing-mode="lr-tb" unicode-bidi="normal" text-decoration="none" transform="matrix(1 0 0 1 2783.5 1419)">bøtta</text><text fill="#274247" fill-opacity="1" font-family="Roboto Condensed,Roboto Condensed_MSFontService,sans-serif" font-style="normal" font-variant="normal" font-weight="700" font-stretch="condensed" font-size="73" text-anchor="start" direction="ltr" writing-mode="lr-tb" unicode-bidi="normal" text-decoration="none" transform="matrix(1 0 0 1 2645.71 1507)">(delomat)</text><rect x="2528.5" y="189.5" width="520" height="799" stroke="#274247" stroke-width="3.4375" stroke-linecap="butt" stroke-linejoin="miter" stroke-miterlimit="8" stroke-opacity="1" fill="#C3DCDC" fill-opacity="0.501961"/><text fill="#274247" fill-opacity="1" font-family="Roboto Condensed,Roboto Condensed_MSFontService,sans-serif" font-style="normal" font-variant="normal" font-weight="700" font-stretch="condensed" font-size="73" text-anchor="start" direction="ltr" writing-mode="lr-tb" unicode-bidi="normal" text-decoration="none" transform="matrix(1 0 0 1 2640.29 291)">Delt</text><text fill="#274247" fill-opacity="1" font-family="Roboto Condensed,Roboto Condensed_MSFontService,sans-serif" font-style="normal" font-variant="normal" font-weight="700" font-stretch="condensed" font-size="73" text-anchor="start" direction="ltr" writing-mode="lr-tb" unicode-bidi="normal" text-decoration="none" transform="matrix(1 0 0 1 2757.16 291)">-</text><text fill="#274247" fill-opacity="1" font-family="Roboto Condensed,Roboto Condensed_MSFontService,sans-serif" font-style="normal" font-variant="normal" font-weight="700" font-stretch="condensed" font-size="73" text-anchor="start" direction="ltr" writing-mode="lr-tb" unicode-bidi="normal" text-decoration="none" transform="matrix(1 0 0 1 2783.52 291)">bøtta</text><text fill="#274247" fill-opacity="1" font-family="Roboto Condensed,Roboto Condensed_MSFontService,sans-serif" font-style="normal" font-variant="normal" font-weight="700" font-stretch="condensed" font-size="73" text-anchor="start" direction="ltr" writing-mode="lr-tb" unicode-bidi="normal" text-decoration="none" transform="matrix(1 0 0 1 2635.98 379)">(standard)</text><rect x="226.5" y="749.5" width="520" height="799" stroke="#274247" stroke-width="3.4375" stroke-linecap="butt" stroke-linejoin="miter" stroke-miterlimit="8" stroke-opacity="1" fill="#C3DCDC" fill-opacity="0.501961"/><text fill="#274247" fill-opacity="1" font-family="Roboto Condensed,Roboto Condensed_MSFontService,sans-serif" font-style="normal" font-variant="normal" font-weight="700" font-stretch="condensed" font-size="73" text-anchor="start" direction="ltr" writing-mode="lr-tb" unicode-bidi="normal" text-decoration="none" transform="matrix(1 0 0 1 335.853 852)">Kildebøtta</text><path d="M349.5 1233C349.5 1095.2 461.205 983.5 599 983.5 736.795 983.5 848.5 1095.2 848.5 1233 848.5 1370.8 736.795 1482.5 599 1482.5 461.205 1482.5 349.5 1370.8 349.5 1233Z" stroke="#274247" stroke-width="6.875" stroke-linecap="butt" stroke-linejoin="miter" stroke-miterlimit="8" stroke-opacity="1" fill="#FFFFFF" fill-rule="evenodd" fill-opacity="1"/><path d="M463.5 1274.83C463.5 1272.99 464.992 1271.5 466.833 1271.5L522.167 1271.5C524.008 1271.5 525.5 1272.99 525.5 1274.83L525.5 1288.17C525.5 1290.01 524.008 1291.5 522.167 1291.5L466.833 1291.5C464.992 1291.5 463.5 1290.01 463.5 1288.17Z" stroke="#274247" stroke-width="3.4375" stroke-linecap="butt" stroke-linejoin="miter" stroke-miterlimit="8" stroke-opacity="1" fill="#E9F2F1" fill-rule="evenodd" fill-opacity="1"/><path d="M536.5 1274.83C536.5 1272.99 537.993 1271.5 539.833 1271.5L595.167 1271.5C597.008 1271.5 598.5 1272.99 598.5 1274.83L598.5 1288.17C598.5 1290.01 597.008 1291.5 595.167 1291.5L539.833 1291.5C537.993 1291.5 536.5 1290.01 536.5 1288.17Z" stroke="#274247" stroke-width="3.4375" stroke-linecap="butt" stroke-linejoin="miter" stroke-miterlimit="8" stroke-opacity="1" fill="#1A9D49" fill-rule="evenodd" fill-opacity="1"/><path d="M608.5 1274.83C608.5 1272.99 609.992 1271.5 611.833 1271.5L668.166 1271.5C670.007 1271.5 671.5 1272.99 671.5 1274.83L671.5 1288.17C671.5 1290.01 670.007 1291.5 668.166 1291.5L611.833 1291.5C609.992 1291.5 608.5 1290.01 608.5 1288.17Z" stroke="#274247" stroke-width="3.4375" stroke-linecap="butt" stroke-linejoin="miter" stroke-miterlimit="8" stroke-opacity="1" fill="#E9F2F1" fill-rule="evenodd" fill-opacity="1"/><path d="M463.5 1305C463.5 1303.07 465.067 1301.5 467 1301.5L522 1301.5C523.933 1301.5 525.5 1303.07 525.5 1305L525.5 1319C525.5 1320.93 523.933 1322.5 522 1322.5L467 1322.5C465.067 1322.5 463.5 1320.93 463.5 1319Z" stroke="#274247" stroke-width="3.4375" stroke-linecap="butt" stroke-linejoin="miter" stroke-miterlimit="8" stroke-opacity="1" fill="#F8EFCB" fill-rule="evenodd" fill-opacity="1"/><path d="M536.5 1305C536.5 1303.07 538.067 1301.5 540 1301.5L595 1301.5C596.933 1301.5 598.5 1303.07 598.5 1305L598.5 1319C598.5 1320.93 596.933 1322.5 595 1322.5L540 1322.5C538.067 1322.5 536.5 1320.93 536.5 1319Z" stroke="#274247" stroke-width="3.4375" stroke-linecap="butt" stroke-linejoin="miter" stroke-miterlimit="8" stroke-opacity="1" fill="#1A9D49" fill-rule="evenodd" fill-opacity="1"/><path d="M608.5 1305C608.5 1303.07 610.067 1301.5 612 1301.5L668 1301.5C669.933 1301.5 671.5 1303.07 671.5 1305L671.5 1319C671.5 1320.93 669.933 1322.5 668 1322.5L612 1322.5C610.067 1322.5 608.5 1320.93 608.5 1319Z" stroke="#274247" stroke-width="3.4375" stroke-linecap="butt" stroke-linejoin="miter" stroke-miterlimit="8" stroke-opacity="1" fill="#E9F2F1" fill-rule="evenodd" fill-opacity="1"/><path d="M463.5 1336C463.5 1334.07 465.067 1332.5 467 1332.5L522 1332.5C523.933 1332.5 525.5 1334.07 525.5 1336L525.5 1350C525.5 1351.93 523.933 1353.5 522 1353.5L467 1353.5C465.067 1353.5 463.5 1351.93 463.5 1350Z" stroke="#274247" stroke-width="3.4375" stroke-linecap="butt" stroke-linejoin="miter" stroke-miterlimit="8" stroke-opacity="1" fill="#E9F2F1" fill-rule="evenodd" fill-opacity="1"/><path d="M536.5 1336C536.5 1334.07 538.067 1332.5 540 1332.5L595 1332.5C596.933 1332.5 598.5 1334.07 598.5 1336L598.5 1350C598.5 1351.93 596.933 1353.5 595 1353.5L540 1353.5C538.067 1353.5 536.5 1351.93 536.5 1350Z" stroke="#274247" stroke-width="3.4375" stroke-linecap="butt" stroke-linejoin="miter" stroke-miterlimit="8" stroke-opacity="1" fill="#1A9D49" fill-rule="evenodd" fill-opacity="1"/><path d="M608.5 1336C608.5 1334.07 610.067 1332.5 612 1332.5L668 1332.5C669.933 1332.5 671.5 1334.07 671.5 1336L671.5 1350C671.5 1351.93 669.933 1353.5 668 1353.5L612 1353.5C610.067 1353.5 608.5 1351.93 608.5 1350Z" stroke="#274247" stroke-width="3.4375" stroke-linecap="butt" stroke-linejoin="miter" stroke-miterlimit="8" stroke-opacity="1" fill="#EED87B" fill-rule="evenodd" fill-opacity="1"/><path d="M463.5 1367C463.5 1365.07 465.067 1363.5 467 1363.5L522 1363.5C523.933 1363.5 525.5 1365.07 525.5 1367L525.5 1381C525.5 1382.93 523.933 1384.5 522 1384.5L467 1384.5C465.067 1384.5 463.5 1382.93 463.5 1381Z" stroke="#274247" stroke-width="3.4375" stroke-linecap="butt" stroke-linejoin="miter" stroke-miterlimit="8" stroke-opacity="1" fill="#E9F2F1" fill-rule="evenodd" fill-opacity="1"/><path d="M536.5 1367C536.5 1365.07 538.067 1363.5 540 1363.5L595 1363.5C596.933 1363.5 598.5 1365.07 598.5 1367L598.5 1381C598.5 1382.93 596.933 1384.5 595 1384.5L540 1384.5C538.067 1384.5 536.5 1382.93 536.5 1381Z" stroke="#274247" stroke-width="3.4375" stroke-linecap="butt" stroke-linejoin="miter" stroke-miterlimit="8" stroke-opacity="1" fill="#1A9D49" fill-rule="evenodd" fill-opacity="1"/><path d="M608.5 1367C608.5 1365.07 610.067 1363.5 612 1363.5L668 1363.5C669.933 1363.5 671.5 1365.07 671.5 1367L671.5 1381C671.5 1382.93 669.933 1384.5 668 1384.5L612 1384.5C610.067 1384.5 608.5 1382.93 608.5 1381Z" stroke="#274247" stroke-width="3.4375" stroke-linecap="butt" stroke-linejoin="miter" stroke-miterlimit="8" stroke-opacity="1" fill="#E9F2F1" fill-rule="evenodd" fill-opacity="1"/><path d="M683.5 1274.83C683.5 1272.99 684.992 1271.5 686.833 1271.5L743.167 1271.5C745.008 1271.5 746.5 1272.99 746.5 1274.83L746.5 1288.17C746.5 1290.01 745.008 1291.5 743.167 1291.5L686.833 1291.5C684.992 1291.5 683.5 1290.01 683.5 1288.17Z" stroke="#274247" stroke-width="3.4375" stroke-linecap="butt" stroke-linejoin="miter" stroke-miterlimit="8" stroke-opacity="1" fill="#E9F2F1" fill-rule="evenodd" fill-opacity="1"/><path d="M683.5 1305C683.5 1303.07 685.067 1301.5 687 1301.5L743 1301.5C744.933 1301.5 746.5 1303.07 746.5 1305L746.5 1319C746.5 1320.93 744.933 1322.5 743 1322.5L687 1322.5C685.067 1322.5 683.5 1320.93 683.5 1319Z" stroke="#274247" stroke-width="3.4375" stroke-linecap="butt" stroke-linejoin="miter" stroke-miterlimit="8" stroke-opacity="1" fill="#E9F2F1" fill-rule="evenodd" fill-opacity="1"/><path d="M683.5 1336C683.5 1334.07 685.067 1332.5 687 1332.5L743 1332.5C744.933 1332.5 746.5 1334.07 746.5 1336L746.5 1350C746.5 1351.93 744.933 1353.5 743 1353.5L687 1353.5C685.067 1353.5 683.5 1351.93 683.5 1350Z" stroke="#274247" stroke-width="3.4375" stroke-linecap="butt" stroke-linejoin="miter" stroke-miterlimit="8" stroke-opacity="1" fill="#F8EFCB" fill-rule="evenodd" fill-opacity="1"/><path d="M683.5 1367C683.5 1365.07 685.067 1363.5 687 1363.5L743 1363.5C744.933 1363.5 746.5 1365.07 746.5 1367L746.5 1381C746.5 1382.93 744.933 1384.5 743 1384.5L687 1384.5C685.067 1384.5 683.5 1382.93 683.5 1381Z" stroke="#274247" stroke-width="3.4375" stroke-linecap="butt" stroke-linejoin="miter" stroke-miterlimit="8" stroke-opacity="1" fill="#E4F5EB" fill-rule="evenodd" fill-opacity="1"/><text fill="#5B7F82" fill-opacity="1" font-family="Roboto Condensed,Roboto Condensed_MSFontService,sans-serif" font-style="normal" font-variant="normal" font-weight="700" font-stretch="condensed" font-size="50" text-anchor="start" direction="ltr" writing-mode="lr-tb" unicode-bidi="normal" text-decoration="none" transform="matrix(1 0 0 1 489.323 1229)">KILDEDATA</text><rect x="1264.5" y="749.5" width="519" height="799" stroke="#274247" stroke-width="3.4375" stroke-linecap="butt" stroke-linejoin="miter" stroke-miterlimit="8" stroke-opacity="1" fill="#C00000" fill-opacity="0.101961"/><text fill="#274247" fill-opacity="1" font-family="Roboto Condensed,Roboto Condensed_MSFontService,sans-serif" font-style="normal" font-variant="normal" font-weight="700" font-stretch="condensed" font-size="73" text-anchor="start" direction="ltr" writing-mode="lr-tb" unicode-bidi="normal" text-decoration="none" transform="matrix(1 0 0 1 1331.6 852)">Produktbøtta</text><path d="M1386.5 1235C1386.5 1097.21 1498.2 985.5 1636 985.5 1773.8 985.5 1885.5 1097.21 1885.5 1235 1885.5 1372.8 1773.8 1484.5 1636 1484.5 1498.2 1484.5 1386.5 1372.8 1386.5 1235Z" stroke="#274247" stroke-width="20.625" stroke-linecap="butt" stroke-linejoin="miter" stroke-miterlimit="8" stroke-opacity="1" fill="#FFFFFF" fill-rule="evenodd" fill-opacity="1"/><path d="M1531.5 1277C1531.5 1275.07 1533.07 1273.5 1535 1273.5L1590 1273.5C1591.93 1273.5 1593.5 1275.07 1593.5 1277L1593.5 1291C1593.5 1292.93 1591.93 1294.5 1590 1294.5L1535 1294.5C1533.07 1294.5 1531.5 1292.93 1531.5 1291Z" stroke="#274247" stroke-width="3.4375" stroke-linecap="butt" stroke-linejoin="miter" stroke-miterlimit="8" stroke-opacity="1" fill="#E9F2F1" fill-rule="evenodd" fill-opacity="1"/><path d="M1604.5 1277C1604.5 1275.07 1606.07 1273.5 1608 1273.5L1663 1273.5C1664.93 1273.5 1666.5 1275.07 1666.5 1277L1666.5 1291C1666.5 1292.93 1664.93 1294.5 1663 1294.5L1608 1294.5C1606.07 1294.5 1604.5 1292.93 1604.5 1291Z" stroke="#274247" stroke-width="3.4375" stroke-linecap="butt" stroke-linejoin="miter" stroke-miterlimit="8" stroke-opacity="1" fill="#C00000" fill-rule="evenodd" fill-opacity="1"/><path d="M1677.5 1277C1677.5 1275.07 1679.07 1273.5 1681 1273.5L1736 1273.5C1737.93 1273.5 1739.5 1275.07 1739.5 1277L1739.5 1291C1739.5 1292.93 1737.93 1294.5 1736 1294.5L1681 1294.5C1679.07 1294.5 1677.5 1292.93 1677.5 1291Z" stroke="#274247" stroke-width="3.4375" stroke-linecap="butt" stroke-linejoin="miter" stroke-miterlimit="8" stroke-opacity="1" fill="#E9F2F1" fill-rule="evenodd" fill-opacity="1"/><path d="M1531.5 1307.83C1531.5 1305.99 1532.99 1304.5 1534.83 1304.5L1590.17 1304.5C1592.01 1304.5 1593.5 1305.99 1593.5 1307.83L1593.5 1321.17C1593.5 1323.01 1592.01 1324.5 1590.17 1324.5L1534.83 1324.5C1532.99 1324.5 1531.5 1323.01 1531.5 1321.17Z" stroke="#274247" stroke-width="3.4375" stroke-linecap="butt" stroke-linejoin="miter" stroke-miterlimit="8" stroke-opacity="1" fill="#E9F2F1" fill-rule="evenodd" fill-opacity="1"/><path d="M1604.5 1307.83C1604.5 1305.99 1605.99 1304.5 1607.83 1304.5L1663.17 1304.5C1665.01 1304.5 1666.5 1305.99 1666.5 1307.83L1666.5 1321.17C1666.5 1323.01 1665.01 1324.5 1663.17 1324.5L1607.83 1324.5C1605.99 1324.5 1604.5 1323.01 1604.5 1321.17Z" stroke="#274247" stroke-width="3.4375" stroke-linecap="butt" stroke-linejoin="miter" stroke-miterlimit="8" stroke-opacity="1" fill="#C00000" fill-rule="evenodd" fill-opacity="1"/><path d="M1531.5 1338C1531.5 1336.07 1533.07 1334.5 1535 1334.5L1590 1334.5C1591.93 1334.5 1593.5 1336.07 1593.5 1338L1593.5 1352C1593.5 1353.93 1591.93 1355.5 1590 1355.5L1535 1355.5C1533.07 1355.5 1531.5 1353.93 1531.5 1352Z" stroke="#274247" stroke-width="3.4375" stroke-linecap="butt" stroke-linejoin="miter" stroke-miterlimit="8" stroke-opacity="1" fill="#E9F2F1" fill-rule="evenodd" fill-opacity="1"/><path d="M1604.5 1338C1604.5 1336.07 1606.07 1334.5 1608 1334.5L1663 1334.5C1664.93 1334.5 1666.5 1336.07 1666.5 1338L1666.5 1352C1666.5 1353.93 1664.93 1355.5 1663 1355.5L1608 1355.5C1606.07 1355.5 1604.5 1353.93 1604.5 1352Z" stroke="#274247" stroke-width="3.4375" stroke-linecap="butt" stroke-linejoin="miter" stroke-miterlimit="8" stroke-opacity="1" fill="#C00000" fill-rule="evenodd" fill-opacity="1"/><path d="M1677.5 1338C1677.5 1336.07 1679.07 1334.5 1681 1334.5L1736 1334.5C1737.93 1334.5 1739.5 1336.07 1739.5 1338L1739.5 1352C1739.5 1353.93 1737.93 1355.5 1736 1355.5L1681 1355.5C1679.07 1355.5 1677.5 1353.93 1677.5 1352Z" stroke="#274247" stroke-width="3.4375" stroke-linecap="butt" stroke-linejoin="miter" stroke-miterlimit="8" stroke-opacity="1" fill="#E9F2F1" fill-rule="evenodd" fill-opacity="1"/><path d="M1531.5 1369C1531.5 1367.07 1533.07 1365.5 1535 1365.5L1590 1365.5C1591.93 1365.5 1593.5 1367.07 1593.5 1369L1593.5 1383C1593.5 1384.93 1591.93 1386.5 1590 1386.5L1535 1386.5C1533.07 1386.5 1531.5 1384.93 1531.5 1383Z" stroke="#274247" stroke-width="3.4375" stroke-linecap="butt" stroke-linejoin="miter" stroke-miterlimit="8" stroke-opacity="1" fill="#E9F2F1" fill-rule="evenodd" fill-opacity="1"/><path d="M1604.5 1369C1604.5 1367.07 1606.07 1365.5 1608 1365.5L1663 1365.5C1664.93 1365.5 1666.5 1367.07 1666.5 1369L1666.5 1383C1666.5 1384.93 1664.93 1386.5 1663 1386.5L1608 1386.5C1606.07 1386.5 1604.5 1384.93 1604.5 1383Z" stroke="#274247" stroke-width="3.4375" stroke-linecap="butt" stroke-linejoin="miter" stroke-miterlimit="8" stroke-opacity="1" fill="#C00000" fill-rule="evenodd" fill-opacity="1"/><path d="M1677.5 1369C1677.5 1367.07 1679.07 1365.5 1681 1365.5L1736 1365.5C1737.93 1365.5 1739.5 1367.07 1739.5 1369L1739.5 1383C1739.5 1384.93 1737.93 1386.5 1736 1386.5L1681 1386.5C1679.07 1386.5 1677.5 1384.93 1677.5 1383Z" stroke="#274247" stroke-width="3.4375" stroke-linecap="butt" stroke-linejoin="miter" stroke-miterlimit="8" stroke-opacity="1" fill="#E9F2F1" fill-rule="evenodd" fill-opacity="1"/><path d="M1677.5 1308C1677.5 1306.07 1679.07 1304.5 1681 1304.5L1736 1304.5C1737.93 1304.5 1739.5 1306.07 1739.5 1308L1739.5 1322C1739.5 1323.93 1737.93 1325.5 1736 1325.5L1681 1325.5C1679.07 1325.5 1677.5 1323.93 1677.5 1322Z" stroke="#274247" stroke-width="3.4375" stroke-linecap="butt" stroke-linejoin="miter" stroke-miterlimit="8" stroke-opacity="1" fill="#E9F2F1" fill-rule="evenodd" fill-opacity="1"/><text fill="#5B7F82" fill-opacity="1" font-family="Roboto Condensed,Roboto Condensed_MSFontService,sans-serif" font-style="normal" font-variant="normal" font-weight="700" font-stretch="condensed" font-size="50" text-anchor="start" direction="ltr" writing-mode="lr-tb" unicode-bidi="normal" text-decoration="none" transform="matrix(1 0 0 1 1527.04 1175)">INNDATA |</text><text fill="#5B7F82" fill-opacity="1" font-family="Roboto Condensed,Roboto Condensed_MSFontService,sans-serif" font-style="normal" font-variant="normal" font-weight="700" font-stretch="condensed" font-size="50" text-anchor="start" direction="ltr" writing-mode="lr-tb" unicode-bidi="normal" text-decoration="none" transform="matrix(1 0 0 1 1433.36 1235)">KLARGJORTE DATA</text><path d="M2643.5 682C2643.5 544.205 2755.21 432.5 2893 432.5 3030.8 432.5 3142.5 544.205 3142.5 682 3142.5 819.795 3030.8 931.5 2893 931.5 2755.21 931.5 2643.5 819.795 2643.5 682Z" stroke="#274247" stroke-width="6.875" stroke-linecap="butt" stroke-linejoin="miter" stroke-miterlimit="8" stroke-opacity="1" fill="#FFFFFF" fill-rule="evenodd" fill-opacity="1"/><path d="M2788.5 723C2788.5 721.067 2790.07 719.5 2792 719.5L2847 719.5C2848.93 719.5 2850.5 721.067 2850.5 723L2850.5 737C2850.5 738.933 2848.93 740.5 2847 740.5L2792 740.5C2790.07 740.5 2788.5 738.933 2788.5 737Z" stroke="#274247" stroke-width="3.4375" stroke-linecap="butt" stroke-linejoin="miter" stroke-miterlimit="8" stroke-opacity="1" fill="#E9F2F1" fill-rule="evenodd" fill-opacity="1"/><path d="M2861.5 723C2861.5 721.067 2863.07 719.5 2865 719.5L2920 719.5C2921.93 719.5 2923.5 721.067 2923.5 723L2923.5 737C2923.5 738.933 2921.93 740.5 2920 740.5L2865 740.5C2863.07 740.5 2861.5 738.933 2861.5 737Z" stroke="#274247" stroke-width="3.4375" stroke-linecap="butt" stroke-linejoin="miter" stroke-miterlimit="8" stroke-opacity="1" fill="#C00000" fill-rule="evenodd" fill-opacity="1"/><path d="M2933.5 723C2933.5 721.067 2935.07 719.5 2937 719.5L2993 719.5C2994.93 719.5 2996.5 721.067 2996.5 723L2996.5 737C2996.5 738.933 2994.93 740.5 2993 740.5L2937 740.5C2935.07 740.5 2933.5 738.933 2933.5 737Z" stroke="#274247" stroke-width="3.4375" stroke-linecap="butt" stroke-linejoin="miter" stroke-miterlimit="8" stroke-opacity="1" fill="#E9F2F1" fill-rule="evenodd" fill-opacity="1"/><path d="M2788.5 754C2788.5 752.067 2790.07 750.5 2792 750.5L2847 750.5C2848.93 750.5 2850.5 752.067 2850.5 754L2850.5 768C2850.5 769.933 2848.93 771.5 2847 771.5L2792 771.5C2790.07 771.5 2788.5 769.933 2788.5 768Z" stroke="#274247" stroke-width="3.4375" stroke-linecap="butt" stroke-linejoin="miter" stroke-miterlimit="8" stroke-opacity="1" fill="#E9F2F1" fill-rule="evenodd" fill-opacity="1"/><path d="M2861.5 754C2861.5 752.067 2863.07 750.5 2865 750.5L2920 750.5C2921.93 750.5 2923.5 752.067 2923.5 754L2923.5 768C2923.5 769.933 2921.93 771.5 2920 771.5L2865 771.5C2863.07 771.5 2861.5 769.933 2861.5 768Z" stroke="#274247" stroke-width="3.4375" stroke-linecap="butt" stroke-linejoin="miter" stroke-miterlimit="8" stroke-opacity="1" fill="#C00000" fill-rule="evenodd" fill-opacity="1"/><path d="M2788.5 785C2788.5 783.067 2790.07 781.5 2792 781.5L2847 781.5C2848.93 781.5 2850.5 783.067 2850.5 785L2850.5 799C2850.5 800.933 2848.93 802.5 2847 802.5L2792 802.5C2790.07 802.5 2788.5 800.933 2788.5 799Z" stroke="#274247" stroke-width="3.4375" stroke-linecap="butt" stroke-linejoin="miter" stroke-miterlimit="8" stroke-opacity="1" fill="#E9F2F1" fill-rule="evenodd" fill-opacity="1"/><path d="M2861.5 785C2861.5 783.067 2863.07 781.5 2865 781.5L2920 781.5C2921.93 781.5 2923.5 783.067 2923.5 785L2923.5 799C2923.5 800.933 2921.93 802.5 2920 802.5L2865 802.5C2863.07 802.5 2861.5 800.933 2861.5 799Z" stroke="#274247" stroke-width="3.4375" stroke-linecap="butt" stroke-linejoin="miter" stroke-miterlimit="8" stroke-opacity="1" fill="#C00000" fill-rule="evenodd" fill-opacity="1"/><path d="M2933.5 785C2933.5 783.067 2935.07 781.5 2937 781.5L2993 781.5C2994.93 781.5 2996.5 783.067 2996.5 785L2996.5 799C2996.5 800.933 2994.93 802.5 2993 802.5L2937 802.5C2935.07 802.5 2933.5 800.933 2933.5 799Z" stroke="#274247" stroke-width="3.4375" stroke-linecap="butt" stroke-linejoin="miter" stroke-miterlimit="8" stroke-opacity="1" fill="#E9F2F1" fill-rule="evenodd" fill-opacity="1"/><path d="M2788.5 815.833C2788.5 813.993 2789.99 812.5 2791.83 812.5L2847.17 812.5C2849.01 812.5 2850.5 813.993 2850.5 815.833L2850.5 829.167C2850.5 831.008 2849.01 832.5 2847.17 832.5L2791.83 832.5C2789.99 832.5 2788.5 831.008 2788.5 829.167Z" stroke="#274247" stroke-width="3.4375" stroke-linecap="butt" stroke-linejoin="miter" stroke-miterlimit="8" stroke-opacity="1" fill="#E9F2F1" fill-rule="evenodd" fill-opacity="1"/><path d="M2861.5 815.833C2861.5 813.993 2862.99 812.5 2864.83 812.5L2920.17 812.5C2922.01 812.5 2923.5 813.993 2923.5 815.833L2923.5 829.167C2923.5 831.008 2922.01 832.5 2920.17 832.5L2864.83 832.5C2862.99 832.5 2861.5 831.008 2861.5 829.167Z" stroke="#274247" stroke-width="3.4375" stroke-linecap="butt" stroke-linejoin="miter" stroke-miterlimit="8" stroke-opacity="1" fill="#C00000" fill-rule="evenodd" fill-opacity="1"/><path d="M2933.5 815.833C2933.5 813.993 2934.99 812.5 2936.83 812.5L2993.17 812.5C2995.01 812.5 2996.5 813.993 2996.5 815.833L2996.5 829.167C2996.5 831.008 2995.01 832.5 2993.17 832.5L2936.83 832.5C2934.99 832.5 2933.5 831.008 2933.5 829.167Z" stroke="#274247" stroke-width="3.4375" stroke-linecap="butt" stroke-linejoin="miter" stroke-miterlimit="8" stroke-opacity="1" fill="#E9F2F1" fill-rule="evenodd" fill-opacity="1"/><path d="M2933.5 754C2933.5 752.067 2935.07 750.5 2937 750.5L2993 750.5C2994.93 750.5 2996.5 752.067 2996.5 754L2996.5 768C2996.5 769.933 2994.93 771.5 2993 771.5L2937 771.5C2935.07 771.5 2933.5 769.933 2933.5 768Z" stroke="#274247" stroke-width="3.4375" stroke-linecap="butt" stroke-linejoin="miter" stroke-miterlimit="8" stroke-opacity="1" fill="#E9F2F1" fill-rule="evenodd" fill-opacity="1"/><text fill="#5B7F82" fill-opacity="1" font-family="Roboto Condensed,Roboto Condensed_MSFontService,sans-serif" font-style="normal" font-variant="normal" font-weight="700" font-stretch="condensed" font-size="50" text-anchor="start" direction="ltr" writing-mode="lr-tb" unicode-bidi="normal" text-decoration="none" transform="matrix(1 0 0 1 2783.71 622)">INNDATA |</text><text fill="#5B7F82" fill-opacity="1" font-family="Roboto Condensed,Roboto Condensed_MSFontService,sans-serif" font-style="normal" font-variant="normal" font-weight="700" font-stretch="condensed" font-size="50" text-anchor="start" direction="ltr" writing-mode="lr-tb" unicode-bidi="normal" text-decoration="none" transform="matrix(1 0 0 1 2690.02 682)">KLARGJORTE DATA</text><path d="M2643.5 1798C2643.5 1660.21 2755.21 1548.5 2893 1548.5 3030.8 1548.5 3142.5 1660.21 3142.5 1798 3142.5 1935.79 3030.8 2047.5 2893 2047.5 2755.21 2047.5 2643.5 1935.79 2643.5 1798Z" stroke="#274247" stroke-width="20.625" stroke-linecap="butt" stroke-linejoin="miter" stroke-miterlimit="8" stroke-opacity="1" fill="#FFFFFF" fill-rule="evenodd" fill-opacity="1"/><path d="M2788.5 1840C2788.5 1838.07 2790.07 1836.5 2792 1836.5L2847 1836.5C2848.93 1836.5 2850.5 1838.07 2850.5 1840L2850.5 1854C2850.5 1855.93 2848.93 1857.5 2847 1857.5L2792 1857.5C2790.07 1857.5 2788.5 1855.93 2788.5 1854Z" stroke="#274247" stroke-width="3.4375" stroke-linecap="butt" stroke-linejoin="miter" stroke-miterlimit="8" stroke-opacity="1" fill="#E9F2F1" fill-rule="evenodd" fill-opacity="1"/><path d="M2861.5 1840C2861.5 1838.07 2863.07 1836.5 2865 1836.5L2920 1836.5C2921.93 1836.5 2923.5 1838.07 2923.5 1840L2923.5 1854C2923.5 1855.93 2921.93 1857.5 2920 1857.5L2865 1857.5C2863.07 1857.5 2861.5 1855.93 2861.5 1854Z" stroke="#274247" stroke-width="3.4375" stroke-linecap="butt" stroke-linejoin="miter" stroke-miterlimit="8" stroke-opacity="1" fill="#1A9D49" fill-rule="evenodd" fill-opacity="1"/><path d="M2933.5 1840C2933.5 1838.07 2935.07 1836.5 2937 1836.5L2993 1836.5C2994.93 1836.5 2996.5 1838.07 2996.5 1840L2996.5 1854C2996.5 1855.93 2994.93 1857.5 2993 1857.5L2937 1857.5C2935.07 1857.5 2933.5 1855.93 2933.5 1854Z" stroke="#274247" stroke-width="3.4375" stroke-linecap="butt" stroke-linejoin="miter" stroke-miterlimit="8" stroke-opacity="1" fill="#E9F2F1" fill-rule="evenodd" fill-opacity="1"/><path d="M2788.5 1871C2788.5 1869.07 2790.07 1867.5 2792 1867.5L2847 1867.5C2848.93 1867.5 2850.5 1869.07 2850.5 1871L2850.5 1885C2850.5 1886.93 2848.93 1888.5 2847 1888.5L2792 1888.5C2790.07 1888.5 2788.5 1886.93 2788.5 1885Z" stroke="#274247" stroke-width="3.4375" stroke-linecap="butt" stroke-linejoin="miter" stroke-miterlimit="8" stroke-opacity="1" fill="#E9F2F1" fill-rule="evenodd" fill-opacity="1"/><path d="M2861.5 1871C2861.5 1869.07 2863.07 1867.5 2865 1867.5L2920 1867.5C2921.93 1867.5 2923.5 1869.07 2923.5 1871L2923.5 1885C2923.5 1886.93 2921.93 1888.5 2920 1888.5L2865 1888.5C2863.07 1888.5 2861.5 1886.93 2861.5 1885Z" stroke="#274247" stroke-width="3.4375" stroke-linecap="butt" stroke-linejoin="miter" stroke-miterlimit="8" stroke-opacity="1" fill="#1A9D49" fill-rule="evenodd" fill-opacity="1"/><path d="M2788.5 1901C2788.5 1899.07 2790.07 1897.5 2792 1897.5L2847 1897.5C2848.93 1897.5 2850.5 1899.07 2850.5 1901L2850.5 1915C2850.5 1916.93 2848.93 1918.5 2847 1918.5L2792 1918.5C2790.07 1918.5 2788.5 1916.93 2788.5 1915Z" stroke="#274247" stroke-width="3.4375" stroke-linecap="butt" stroke-linejoin="miter" stroke-miterlimit="8" stroke-opacity="1" fill="#E9F2F1" fill-rule="evenodd" fill-opacity="1"/><path d="M2861.5 1901C2861.5 1899.07 2863.07 1897.5 2865 1897.5L2920 1897.5C2921.93 1897.5 2923.5 1899.07 2923.5 1901L2923.5 1915C2923.5 1916.93 2921.93 1918.5 2920 1918.5L2865 1918.5C2863.07 1918.5 2861.5 1916.93 2861.5 1915Z" stroke="#274247" stroke-width="3.4375" stroke-linecap="butt" stroke-linejoin="miter" stroke-miterlimit="8" stroke-opacity="1" fill="#1A9D49" fill-rule="evenodd" fill-opacity="1"/><path d="M2933.5 1901C2933.5 1899.07 2935.07 1897.5 2937 1897.5L2993 1897.5C2994.93 1897.5 2996.5 1899.07 2996.5 1901L2996.5 1915C2996.5 1916.93 2994.93 1918.5 2993 1918.5L2937 1918.5C2935.07 1918.5 2933.5 1916.93 2933.5 1915Z" stroke="#274247" stroke-width="3.4375" stroke-linecap="butt" stroke-linejoin="miter" stroke-miterlimit="8" stroke-opacity="1" fill="#E9F2F1" fill-rule="evenodd" fill-opacity="1"/><path d="M2788.5 1932C2788.5 1930.07 2790.07 1928.5 2792 1928.5L2847 1928.5C2848.93 1928.5 2850.5 1930.07 2850.5 1932L2850.5 1946C2850.5 1947.93 2848.93 1949.5 2847 1949.5L2792 1949.5C2790.07 1949.5 2788.5 1947.93 2788.5 1946Z" stroke="#274247" stroke-width="3.4375" stroke-linecap="butt" stroke-linejoin="miter" stroke-miterlimit="8" stroke-opacity="1" fill="#E9F2F1" fill-rule="evenodd" fill-opacity="1"/><path d="M2861.5 1932C2861.5 1930.07 2863.07 1928.5 2865 1928.5L2920 1928.5C2921.93 1928.5 2923.5 1930.07 2923.5 1932L2923.5 1946C2923.5 1947.93 2921.93 1949.5 2920 1949.5L2865 1949.5C2863.07 1949.5 2861.5 1947.93 2861.5 1946Z" stroke="#274247" stroke-width="3.4375" stroke-linecap="butt" stroke-linejoin="miter" stroke-miterlimit="8" stroke-opacity="1" fill="#1A9D49" fill-rule="evenodd" fill-opacity="1"/><path d="M2933.5 1932C2933.5 1930.07 2935.07 1928.5 2937 1928.5L2993 1928.5C2994.93 1928.5 2996.5 1930.07 2996.5 1932L2996.5 1946C2996.5 1947.93 2994.93 1949.5 2993 1949.5L2937 1949.5C2935.07 1949.5 2933.5 1947.93 2933.5 1946Z" stroke="#274247" stroke-width="3.4375" stroke-linecap="butt" stroke-linejoin="miter" stroke-miterlimit="8" stroke-opacity="1" fill="#E9F2F1" fill-rule="evenodd" fill-opacity="1"/><path d="M2933.5 1871C2933.5 1869.07 2935.07 1867.5 2937 1867.5L2993 1867.5C2994.93 1867.5 2996.5 1869.07 2996.5 1871L2996.5 1885C2996.5 1886.93 2994.93 1888.5 2993 1888.5L2937 1888.5C2935.07 1888.5 2933.5 1886.93 2933.5 1885Z" stroke="#274247" stroke-width="3.4375" stroke-linecap="butt" stroke-linejoin="miter" stroke-miterlimit="8" stroke-opacity="1" fill="#E9F2F1" fill-rule="evenodd" fill-opacity="1"/><text fill="#5B7F82" fill-opacity="1" font-family="Roboto Condensed,Roboto Condensed_MSFontService,sans-serif" font-style="normal" font-variant="normal" font-weight="700" font-stretch="condensed" font-size="50" text-anchor="start" direction="ltr" writing-mode="lr-tb" unicode-bidi="normal" text-decoration="none" transform="matrix(1 0 0 1 2783.71 1738)">INNDATA |</text><text fill="#5B7F82" fill-opacity="1" font-family="Roboto Condensed,Roboto Condensed_MSFontService,sans-serif" font-style="normal" font-variant="normal" font-weight="700" font-stretch="condensed" font-size="50" text-anchor="start" direction="ltr" writing-mode="lr-tb" unicode-bidi="normal" text-decoration="none" transform="matrix(1 0 0 1 2690.02 1798)">KLARGJORTE DATA</text><path d="M0 0 790.572 351.507" stroke="#274247" stroke-width="6.875" stroke-linecap="butt" stroke-linejoin="miter" stroke-miterlimit="8" stroke-opacity="1" fill="none" fill-rule="evenodd" transform="matrix(1 0 0 -1 1872.5 1133.01)"/><path d="M1856.5 1349.5 2655.27 1689.15" stroke="#274247" stroke-width="20.625" stroke-linecap="butt" stroke-linejoin="miter" stroke-miterlimit="8" stroke-opacity="1" fill="none" fill-rule="evenodd"/><path d="M1172.5 474.5 1172.5 1877.26" stroke="#274247" stroke-width="3.4375" stroke-linecap="butt" stroke-linejoin="miter" stroke-miterlimit="8" stroke-dasharray="13.75 10.3125" stroke-opacity="1" fill="none" fill-rule="evenodd"/><path d="M848.5 1232.5 1386.82 1234.77" stroke="#274247" stroke-width="6.875" stroke-linecap="butt" stroke-linejoin="miter" stroke-miterlimit="8" stroke-opacity="1" fill="none" fill-rule="evenodd"/><text fill="#1A9D49" fill-opacity="1" font-family="Open Sans,Open Sans_MSFontService,sans-serif" font-style="normal" font-variant="normal" font-weight="400" font-stretch="normal" font-size="64" text-anchor="start" direction="ltr" writing-mode="lr-tb" unicode-bidi="normal" text-decoration="none" transform="matrix(1 0 0 1 866.763 1177)">Kildomaten</text><text fill="#1A9D49" fill-opacity="1" font-family="Open Sans,Open Sans_MSFontService,sans-serif" font-style="normal" font-variant="normal" font-weight="400" font-stretch="normal" font-size="64" text-anchor="start" direction="ltr" writing-mode="lr-tb" unicode-bidi="normal" text-decoration="none" transform="matrix(0.918144 0.396246 -0.396246 0.918144 2054.29 1356)">Delomaten</text><path d="M1363 1614.5C1363 1626.93 1352.93 1637 1340.5 1637 1328.07 1637 1318 1626.93 1318 1614.5 1318 1602.07 1328.07 1592 1340.5 1592 1352.93 1592 1363 1602.07 1363 1614.5Z" fill="#FFFFFF" fill-rule="evenodd" fill-opacity="1"/><path d="M1340.42 1640.22C1353.94 1640.2 1364.9 1629.01 1364.92 1615.22 1364.9 1601.43 1353.94 1590.25 1340.42 1590.22 1326.9 1590.25 1315.93 1601.43 1315.92 1615.22 1315.93 1629.01 1326.9 1640.2 1340.42 1640.22ZM1340.42 1592.86C1352.52 1592.88 1362.33 1602.88 1362.34 1615.22 1362.33 1627.57 1352.52 1637.57 1340.42 1637.59 1328.32 1637.57 1318.51 1627.57 1318.5 1615.22 1318.51 1602.88 1328.32 1592.88 1340.42 1592.86Z" fill="#274247" fill-rule="evenodd" fill-opacity="1"/><path d="M1310 1726 1371 1726 1371 1739 1310 1739Z" fill="#274247" fill-rule="evenodd" fill-opacity="1"/><path d="M1363.02 1642.22 1340.52 1667.26 1317.97 1642.22C1316.89 1642.41 1288.92 1648.04 1288.92 1661.48L1288.92 1717.56 1307.4 1738.22 1307.4 1685.34C1307.4 1684.6 1308 1684.03 1308.73 1684.03 1309.45 1684.03 1310.05 1684.6 1310.05 1685.34L1310.05 1723.32 1370.79 1723.32 1370.79 1685.34C1370.79 1684.6 1371.38 1684.03 1372.11 1684.03 1372.84 1684.03 1373.43 1684.6 1373.43 1685.34L1373.43 1738.12 1391.92 1717.45 1391.92 1661.37C1392.08 1648.04 1364.19 1642.41 1363.02 1642.22Z" fill="#C00000" fill-rule="evenodd" fill-opacity="1"/><text fill="#274247" fill-opacity="1" font-family="Roboto Condensed,Roboto Condensed_MSFontService,sans-serif" font-style="normal" font-variant="normal" font-weight="700" font-stretch="condensed" font-size="73" text-anchor="start" direction="ltr" writing-mode="lr-tb" unicode-bidi="normal" text-decoration="none" transform="matrix(1 0 0 1 1419.21 1717)">Team A</text><path d="M2626 2182.5C2626 2194.93 2616.15 2205 2604 2205 2591.85 2205 2582 2194.93 2582 2182.5 2582 2170.07 2591.85 2160 2604 2160 2616.15 2160 2626 2170.07 2626 2182.5Z" fill="#FFFFFF" fill-rule="evenodd" fill-opacity="1"/><path d="M2603.92 2208.22C2617.72 2208.2 2628.9 2197.01 2628.92 2183.22 2628.9 2169.44 2617.72 2158.25 2603.92 2158.22 2590.12 2158.25 2578.93 2169.44 2578.92 2183.22 2578.93 2197.01 2590.12 2208.2 2603.92 2208.22ZM2603.92 2160.86C2616.27 2160.88 2626.27 2170.88 2626.29 2183.22 2626.27 2195.57 2616.27 2205.57 2603.92 2205.59 2591.57 2205.57 2581.57 2195.57 2581.55 2183.22 2581.57 2170.88 2591.57 2160.88 2603.92 2160.86Z" fill="#274247" fill-rule="evenodd" fill-opacity="1"/><path d="M2574 2294 2634 2294 2634 2307 2574 2307Z" fill="#274247" fill-rule="evenodd" fill-opacity="1"/><path d="M2626.31 2210.22 2604.02 2235.26 2581.69 2210.22C2580.61 2210.41 2552.92 2216.04 2552.92 2229.48L2552.92 2285.56 2571.23 2306.22 2571.23 2253.34C2571.23 2252.6 2571.81 2252.03 2572.53 2252.03 2573.26 2252.03 2573.84 2252.6 2573.84 2253.34L2573.84 2291.32 2633.99 2291.32 2633.99 2253.34C2633.99 2252.6 2634.58 2252.03 2635.3 2252.03 2636.02 2252.03 2636.61 2252.6 2636.61 2253.34L2636.61 2306.12 2654.92 2285.45 2654.92 2229.37C2655.07 2216.04 2627.46 2210.41 2626.31 2210.22Z" fill="#1A9D49" fill-rule="evenodd" fill-opacity="1"/><text fill="#274247" fill-opacity="1" font-family="Roboto Condensed,Roboto Condensed_MSFontService,sans-serif" font-style="normal" font-variant="normal" font-weight="700" font-stretch="condensed" font-size="73" text-anchor="start" direction="ltr" writing-mode="lr-tb" unicode-bidi="normal" text-decoration="none" transform="matrix(1 0 0 1 2682.69 2285)">Team B</text><text fill="#274247" fill-opacity="1" font-family="Open Sans,Open Sans_MSFontService,sans-serif" font-style="normal" font-variant="normal" font-weight="400" font-stretch="normal" font-size="64" text-anchor="start" direction="ltr" writing-mode="lr-tb" unicode-bidi="normal" text-decoration="none" transform="matrix(1 0 0 1 1529.48 448)">Team A har tilgang til </text><text fill="#274247" fill-opacity="1" font-family="Open Sans,Open Sans_MSFontService,sans-serif" font-style="normal" font-variant="normal" font-weight="400" font-stretch="normal" font-size="64" text-anchor="start" direction="ltr" writing-mode="lr-tb" unicode-bidi="normal" text-decoration="none" transform="matrix(1 0 0 1 1529.48 525)">pseudonymiserte</text><text fill="#274247" fill-opacity="1" font-family="Open Sans,Open Sans_MSFontService,sans-serif" font-style="normal" font-variant="normal" font-weight="400" font-stretch="normal" font-size="64" text-anchor="start" direction="ltr" writing-mode="lr-tb" unicode-bidi="normal" text-decoration="none" transform="matrix(1 0 0 1 2068.59 525)">data</text><text fill="#274247" fill-opacity="1" font-family="Open Sans,Open Sans_MSFontService,sans-serif" font-style="normal" font-variant="normal" font-weight="400" font-stretch="normal" font-size="64" text-anchor="start" direction="ltr" writing-mode="lr-tb" unicode-bidi="normal" text-decoration="none" transform="matrix(1 0 0 1 1529.48 602)">i egne produktbøtter.</text><path d="M2008.59 639.117 2001.4 658.447 1994.96 656.049 2002.15 636.719ZM1998.96 664.906 1992.14 682.722 1991.53 684.219 1985.16 681.64 1985.75 680.173 1985.73 680.234 1992.54 662.449ZM1988.95 690.592 1983.63 703.757 1981 709.731 1974.71 706.96 1977.31 701.034 1977.27 701.13 1982.58 688.013ZM1978.23 716.023 1974.79 723.83 1970.2 733.438 1969.45 734.9 1963.33 731.776 1964.05 730.354 1964.01 730.434 1968.56 720.914 1968.52 721.011 1971.93 713.252ZM1966.33 741.024 1965.48 742.677 1960.63 751.52 1956.07 759.172 1950.16 755.652 1954.69 748.052 1954.63 748.159 1959.43 739.414 1959.38 739.506 1960.2 737.9ZM1952.26 765.065 1950.43 767.865 1945.05 775.286 1939.7 781.856 1934.37 777.515 1939.66 771.02 1939.54 771.173 1944.81 763.897 1944.72 764.034 1946.51 761.303ZM1934.89 787.074 1933.64 788.419 1927.59 794.047 1921.33 799.049 1918.62 800.899 1914.74 795.224 1917.34 793.446 1917.14 793.598 1923.2 788.756 1923 788.925 1928.87 783.471 1928.69 783.649 1929.85 782.397ZM1912.64 804.763 1908.25 807.324 1901.47 810.676 1894.55 813.559 1893.48 813.936 1891.21 807.446 1892.19 807.102 1892 807.175 1898.72 804.372 1898.52 804.464 1905.1 801.213 1904.89 801.325 1909.18 798.823ZM1886.8 816.226 1880.35 818.102 1866.54 821.123 1865.07 814.407 1878.77 811.41 1878.54 811.468 1884.88 809.624ZM1859.51 822.203 1851.12 823.433 1838.88 824.663 1838.19 817.823 1850.35 816.601 1850.2 816.62 1858.51 815.4ZM1831.95 825.262 1828.38 825.54 1827.84 818.686 1831.42 818.408ZM1869.58 844.886 1821.05 822.662 1865.56 793.199C1867.14 792.151 1869.28 792.585 1870.32 794.168 1871.37 795.751 1870.94 797.884 1869.35 798.932L1830.01 824.979 1829.54 818.988 1872.44 838.635C1874.17 839.426 1874.93 841.466 1874.14 843.192 1873.35 844.918 1871.31 845.676 1869.58 844.886Z" fill="#274247" fill-rule="nonzero" fill-opacity="1"/><path d="M2726 1060C2726 1072.15 2716.15 1082 2704 1082 2691.85 1082 2682 1072.15 2682 1060 2682 1047.85 2691.85 1038 2704 1038 2716.15 1038 2726 1047.85 2726 1060Z" fill="#FFFFFF" fill-rule="evenodd" fill-opacity="1"/><path d="M2703.92 1085.22C2717.72 1085.2 2728.9 1074.01 2728.92 1060.22 2728.9 1046.43 2717.72 1035.25 2703.92 1035.22 2690.12 1035.25 2678.93 1046.43 2678.92 1060.22 2678.93 1074.01 2690.12 1085.2 2703.92 1085.22ZM2703.92 1037.86C2716.27 1037.88 2726.27 1047.88 2726.29 1060.22 2726.27 1072.57 2716.27 1082.57 2703.92 1082.59 2691.57 1082.57 2681.57 1072.57 2681.55 1060.22 2681.57 1047.88 2691.57 1037.88 2703.92 1037.86Z" fill="#274247" fill-rule="evenodd" fill-opacity="1"/><path d="M2674 1171 2734 1171 2734 1185 2674 1185Z" fill="#274247" fill-rule="evenodd" fill-opacity="1"/><path d="M2726.31 1087.23 2704.02 1112.53 2681.69 1087.23C2680.61 1087.41 2652.92 1093.1 2652.92 1106.68L2652.92 1163.34 2671.23 1184.23 2671.23 1130.79C2671.23 1130.05 2671.81 1129.47 2672.53 1129.47 2673.26 1129.47 2673.84 1130.05 2673.84 1130.79L2673.84 1169.17 2733.99 1169.17 2733.99 1130.79C2733.99 1130.05 2734.58 1129.47 2735.3 1129.47 2736.02 1129.47 2736.61 1130.05 2736.61 1130.79L2736.61 1184.12 2754.92 1163.24 2754.92 1106.57C2755.07 1093.1 2727.46 1087.41 2726.31 1087.23Z" fill="#274247" fill-rule="evenodd" fill-opacity="1"/><text fill="#274247" fill-opacity="1" font-family="Roboto Condensed,Roboto Condensed_MSFontService,sans-serif" font-style="normal" font-variant="normal" font-weight="700" font-stretch="condensed" font-size="73" text-anchor="start" direction="ltr" writing-mode="lr-tb" unicode-bidi="normal" text-decoration="none" transform="matrix(1 0 0 1 2782.61 1149)">Team i SSB</text><text fill="#274247" fill-opacity="1" font-family="Open Sans,Open Sans_MSFontService,sans-serif" font-style="normal" font-variant="normal" font-weight="400" font-stretch="normal" font-size="64" text-anchor="start" direction="ltr" writing-mode="lr-tb" unicode-bidi="normal" text-decoration="none" transform="matrix(1 0 0 1 3293.43 1561)">Team B får tilgang til </text><text fill="#274247" fill-opacity="1" font-family="Open Sans,Open Sans_MSFontService,sans-serif" font-style="normal" font-variant="normal" font-weight="400" font-stretch="normal" font-size="64" text-anchor="start" direction="ltr" writing-mode="lr-tb" unicode-bidi="normal" text-decoration="none" transform="matrix(1 0 0 1 3293.43 1638)">de</text><text fill="#274247" fill-opacity="1" font-family="Open Sans,Open Sans_MSFontService,sans-serif" font-style="normal" font-variant="normal" font-weight="400" font-stretch="normal" font-size="64" text-anchor="start" direction="ltr" writing-mode="lr-tb" unicode-bidi="normal" text-decoration="none" transform="matrix(1 0 0 1 3369.06 1638)">-</text><text fill="#274247" fill-opacity="1" font-family="Open Sans,Open Sans_MSFontService,sans-serif" font-style="normal" font-variant="normal" font-weight="400" font-stretch="normal" font-size="64" text-anchor="start" direction="ltr" writing-mode="lr-tb" unicode-bidi="normal" text-decoration="none" transform="matrix(1 0 0 1 3389.68 1638)">pseudonymiserte </text><text fill="#274247" fill-opacity="1" font-family="Open Sans,Open Sans_MSFontService,sans-serif" font-style="normal" font-variant="normal" font-weight="400" font-stretch="normal" font-size="64" text-anchor="start" direction="ltr" writing-mode="lr-tb" unicode-bidi="normal" text-decoration="none" transform="matrix(1 0 0 1 3293.43 1715)">data i delte bøtter.</text><text fill="#274247" fill-opacity="1" font-family="Open Sans,Open Sans_MSFontService,sans-serif" font-style="normal" font-variant="normal" font-weight="400" font-stretch="normal" font-size="64" text-anchor="start" direction="ltr" writing-mode="lr-tb" unicode-bidi="normal" text-decoration="none" transform="matrix(1 0 0 1 3293.43 1792)">Team A har ikke tilgang </text><text fill="#274247" fill-opacity="1" font-family="Open Sans,Open Sans_MSFontService,sans-serif" font-style="normal" font-variant="normal" font-weight="400" font-stretch="normal" font-size="64" text-anchor="start" direction="ltr" writing-mode="lr-tb" unicode-bidi="normal" text-decoration="none" transform="matrix(1 0 0 1 3293.43 1869)">til disse dataene.</text><path d="M223.722 1.88653 212.402 19.128 206.655 15.3549 217.975-1.88653ZM208.581 24.8806 197.966 40.7296 197.042 42.0543 191.403 38.1206 192.309 36.8227 192.272 36.8767 202.868 21.0549ZM193.108 47.6927 184.982 59.3398 181.087 64.5777 175.57 60.4751 179.434 55.279 179.373 55.3634 187.47 43.7589ZM176.984 70.0944 171.893 76.9402 165.277 85.2836 164.224 86.5424 158.95 82.1327 159.974 80.908 159.918 80.9768 166.474 72.7101 166.409 72.7948 171.468 65.9919ZM159.815 91.8169 158.625 93.2401 151.922 100.78 145.771 107.223 140.798 102.476 146.907 96.0769 146.824 96.1667 153.452 88.7114 153.384 88.7904 154.54 87.4072ZM140.745 112.12 138.337 114.442 131.439 120.478 124.76 125.691 120.53 120.272 127.132 115.118 126.984 115.24 133.747 109.322 133.625 109.435 135.973 107.17ZM118.907 129.706 117.391 130.739 110.239 134.877 103.02 138.359 99.9693 139.56 97.4505 133.163 100.382 132.009 100.148 132.111 107.136 128.741 106.907 128.862 113.838 124.852 113.625 124.986 115.038 124.024ZM93.2799 141.994 88.426 143.512 81.07 145.269 73.6861 146.54 72.5506 146.667 71.7856 139.835 72.8205 139.719 72.6201 139.747 79.7956 138.513 79.5797 138.557 86.7138 136.853 86.4866 136.915 91.228 135.432ZM65.5332 147.413 58.8272 147.804 44.6876 147.673 44.7516 140.798 58.7749 140.928 58.5425 140.934 65.1324 140.549ZM37.5932 147.159 29.1426 146.49 16.9332 144.962 17.7871 138.14 29.9188 139.658 29.7629 139.643 38.1355 140.305ZM10.0479 144.002 6.50138 143.477 7.50837 136.676 11.0549 137.202ZM42.3619 171.516 0.00297114 139.04 49.9553 120.232C51.7321 119.563 53.7147 120.461 54.3836 122.238 55.0526 124.015 54.1546 125.997 52.3779 126.666L8.21614 143.294 9.0964 137.349 46.5449 166.06C48.0515 167.215 48.3365 169.373 47.1814 170.88 46.0263 172.386 43.8685 172.671 42.3619 171.516Z" fill="#274247" fill-rule="nonzero" fill-opacity="1" transform="matrix(0.980217 -0.197923 -0.197923 -0.980217 3108.92 1518.01)"/><path d="M226.5 2285C226.5 2283.07 228.067 2281.5 230 2281.5L285 2281.5C286.933 2281.5 288.5 2283.07 288.5 2285L288.5 2299C288.5 2300.93 286.933 2302.5 285 2302.5L230 2302.5C228.067 2302.5 226.5 2300.93 226.5 2299Z" stroke="#274247" stroke-width="3.4375" stroke-linecap="butt" stroke-linejoin="miter" stroke-miterlimit="8" stroke-opacity="1" fill="#C00000" fill-rule="evenodd" fill-opacity="1"/><path d="M226.5 2316C226.5 2314.07 228.067 2312.5 230 2312.5L285 2312.5C286.933 2312.5 288.5 2314.07 288.5 2316L288.5 2330C288.5 2331.93 286.933 2333.5 285 2333.5L230 2333.5C228.067 2333.5 226.5 2331.93 226.5 2330Z" stroke="#274247" stroke-width="3.4375" stroke-linecap="butt" stroke-linejoin="miter" stroke-miterlimit="8" stroke-opacity="1" fill="#C00000" fill-rule="evenodd" fill-opacity="1"/><path d="M226.5 2346.83C226.5 2344.99 227.992 2343.5 229.833 2343.5L285.166 2343.5C287.007 2343.5 288.5 2344.99 288.5 2346.83L288.5 2360.17C288.5 2362.01 287.007 2363.5 285.166 2363.5L229.833 2363.5C227.992 2363.5 226.5 2362.01 226.5 2360.17Z" stroke="#274247" stroke-width="3.4375" stroke-linecap="butt" stroke-linejoin="miter" stroke-miterlimit="8" stroke-opacity="1" fill="#C00000" fill-rule="evenodd" fill-opacity="1"/><path d="M226.5 2377C226.5 2375.07 228.067 2373.5 230 2373.5L285 2373.5C286.933 2373.5 288.5 2375.07 288.5 2377L288.5 2391C288.5 2392.93 286.933 2394.5 285 2394.5L230 2394.5C228.067 2394.5 226.5 2392.93 226.5 2391Z" stroke="#274247" stroke-width="3.4375" stroke-linecap="butt" stroke-linejoin="miter" stroke-miterlimit="8" stroke-opacity="1" fill="#C00000" fill-rule="evenodd" fill-opacity="1"/><text fill="#274247" fill-opacity="1" font-family="Roboto Condensed,Roboto Condensed_MSFontService,sans-serif" font-style="normal" font-variant="normal" font-weight="700" font-stretch="condensed" font-size="73" text-anchor="start" direction="ltr" writing-mode="lr-tb" unicode-bidi="normal" text-decoration="none" transform="matrix(1 0 0 1 342.248 2363)">Pseudonymiserte data</text><path d="M226.5 2127.83C226.5 2125.99 227.992 2124.5 229.833 2124.5L285.166 2124.5C287.007 2124.5 288.5 2125.99 288.5 2127.83L288.5 2141.17C288.5 2143.01 287.007 2144.5 285.166 2144.5L229.833 2144.5C227.992 2144.5 226.5 2143.01 226.5 2141.17Z" stroke="#274247" stroke-width="3.4375" stroke-linecap="butt" stroke-linejoin="miter" stroke-miterlimit="8" stroke-opacity="1" fill="#1A9D49" fill-rule="evenodd" fill-opacity="1"/><path d="M226.5 2158C226.5 2156.07 228.067 2154.5 230 2154.5L285 2154.5C286.933 2154.5 288.5 2156.07 288.5 2158L288.5 2172C288.5 2173.93 286.933 2175.5 285 2175.5L230 2175.5C228.067 2175.5 226.5 2173.93 226.5 2172Z" stroke="#274247" stroke-width="3.4375" stroke-linecap="butt" stroke-linejoin="miter" stroke-miterlimit="8" stroke-opacity="1" fill="#1A9D49" fill-rule="evenodd" fill-opacity="1"/><path d="M226.5 2189C226.5 2187.07 228.067 2185.5 230 2185.5L285 2185.5C286.933 2185.5 288.5 2187.07 288.5 2189L288.5 2203C288.5 2204.93 286.933 2206.5 285 2206.5L230 2206.5C228.067 2206.5 226.5 2204.93 226.5 2203Z" stroke="#274247" stroke-width="3.4375" stroke-linecap="butt" stroke-linejoin="miter" stroke-miterlimit="8" stroke-opacity="1" fill="#1A9D49" fill-rule="evenodd" fill-opacity="1"/><path d="M226.5 2220C226.5 2218.07 228.067 2216.5 230 2216.5L285 2216.5C286.933 2216.5 288.5 2218.07 288.5 2220L288.5 2234C288.5 2235.93 286.933 2237.5 285 2237.5L230 2237.5C228.067 2237.5 226.5 2235.93 226.5 2234Z" stroke="#274247" stroke-width="3.4375" stroke-linecap="butt" stroke-linejoin="miter" stroke-miterlimit="8" stroke-opacity="1" fill="#1A9D49" fill-rule="evenodd" fill-opacity="1"/><text fill="#274247" fill-opacity="1" font-family="Roboto Condensed,Roboto Condensed_MSFontService,sans-serif" font-style="normal" font-variant="normal" font-weight="700" font-stretch="condensed" font-size="73" text-anchor="start" direction="ltr" writing-mode="lr-tb" unicode-bidi="normal" text-decoration="none" transform="matrix(1 0 0 1 342.248 2210)">Ikke pseudonymiserte data</text><rect x="133.5" y="81.5" width="3089" height="2355" stroke="#274247" stroke-width="6.875" stroke-linecap="butt" stroke-linejoin="miter" stroke-miterlimit="8" stroke-opacity="1" fill="none"/><path d="M265 139.5C265 151.926 254.927 162 242.5 162 230.074 162 220 151.926 220 139.5 220 127.073 230.074 117 242.5 117 254.927 117 265 127.073 265 139.5Z" fill="#FFFFFF" fill-rule="evenodd" fill-opacity="1"/><path d="M242.918 164.224C256.718 164.198 267.902 153.014 267.918 139.224 267.902 125.435 256.718 114.251 242.918 114.225 229.118 114.251 217.934 125.435 217.918 139.224 217.934 153.014 229.118 164.198 242.918 164.224ZM242.918 116.856C255.265 116.882 265.271 126.882 265.287 139.224 265.271 151.566 255.265 161.566 242.918 161.593 230.571 161.566 220.565 151.566 220.55 139.224 220.565 126.882 230.571 116.882 242.918 116.856Z" fill="#274247" fill-rule="evenodd" fill-opacity="1"/><path d="M213 251 273 251 273 264 213 264Z" fill="#274247" fill-rule="evenodd" fill-opacity="1"/><path d="M265.024 167.223 242.523 192.265 219.969 167.223C218.886 167.407 190.918 173.038 190.918 186.476L190.918 242.557 209.405 263.224 209.405 210.338C209.405 209.605 209.996 209.029 210.725 209.029 211.454 209.029 212.046 209.605 212.046 210.338L212.046 248.319 272.789 248.319 272.789 210.338C272.789 209.605 273.38 209.029 274.109 209.029 274.838 209.029 275.43 209.605 275.43 210.338L275.43 263.119 293.917 242.452 293.917 186.371C294.075 173.038 266.186 167.407 265.024 167.223Z" fill="#C00000" fill-rule="evenodd" fill-opacity="1"/><path d="M2592 1058.5C2592 1070.93 2582.15 1081 2570 1081 2557.85 1081 2548 1070.93 2548 1058.5 2548 1046.07 2557.85 1036 2570 1036 2582.15 1036 2592 1046.07 2592 1058.5Z" fill="#FFFFFF" fill-rule="evenodd" fill-opacity="1"/><path d="M2569.92 1084.22C2583.72 1084.2 2594.9 1073.01 2594.92 1059.22 2594.9 1045.43 2583.72 1034.25 2569.92 1034.22 2556.12 1034.25 2544.93 1045.43 2544.92 1059.22 2544.93 1073.01 2556.12 1084.2 2569.92 1084.22ZM2569.92 1036.86C2582.27 1036.88 2592.27 1046.88 2592.29 1059.22 2592.27 1071.57 2582.27 1081.57 2569.92 1081.59 2557.57 1081.57 2547.57 1071.57 2547.55 1059.22 2547.57 1046.88 2557.57 1036.88 2569.92 1036.86Z" fill="#274247" fill-rule="evenodd" fill-opacity="1"/><path d="M2540 1170 2600 1170 2600 1183 2540 1183Z" fill="#274247" fill-rule="evenodd" fill-opacity="1"/><path d="M2592.31 1086.22 2570.02 1111.26 2547.69 1086.22C2546.61 1086.41 2518.92 1092.04 2518.92 1105.48L2518.92 1161.56 2537.23 1182.22 2537.23 1129.34C2537.23 1128.6 2537.81 1128.03 2538.53 1128.03 2539.26 1128.03 2539.84 1128.6 2539.84 1129.34L2539.84 1167.32 2599.99 1167.32 2599.99 1129.34C2599.99 1128.6 2600.58 1128.03 2601.3 1128.03 2602.02 1128.03 2602.61 1128.6 2602.61 1129.34L2602.61 1182.12 2620.92 1161.45 2620.92 1105.37C2621.07 1092.04 2593.46 1086.41 2592.31 1086.22Z" fill="#C00000" fill-rule="evenodd" fill-opacity="1"/><text fill="#274247" fill-opacity="1" font-family="Open Sans,Open Sans_MSFontService,sans-serif" font-style="normal" font-variant="normal" font-weight="400" font-stretch="normal" font-size="64" text-anchor="start" direction="ltr" writing-mode="lr-tb" unicode-bidi="normal" text-decoration="none" transform="matrix(1 0 0 1 3377.43 689)">Team A og andre team i </text><text fill="#274247" fill-opacity="1" font-family="Open Sans,Open Sans_MSFontService,sans-serif" font-style="normal" font-variant="normal" font-weight="400" font-stretch="normal" font-size="64" text-anchor="start" direction="ltr" writing-mode="lr-tb" unicode-bidi="normal" text-decoration="none" transform="matrix(1 0 0 1 3377.43 766)">SSB får tilgang til </text><text fill="#274247" fill-opacity="1" font-family="Open Sans,Open Sans_MSFontService,sans-serif" font-style="normal" font-variant="normal" font-weight="400" font-stretch="normal" font-size="64" text-anchor="start" direction="ltr" writing-mode="lr-tb" unicode-bidi="normal" text-decoration="none" transform="matrix(1 0 0 1 3377.43 843)">pseudonymiserte data i </text><text fill="#274247" fill-opacity="1" font-family="Open Sans,Open Sans_MSFontService,sans-serif" font-style="normal" font-variant="normal" font-weight="400" font-stretch="normal" font-size="64" text-anchor="start" direction="ltr" writing-mode="lr-tb" unicode-bidi="normal" text-decoration="none" transform="matrix(1 0 0 1 3377.43 920)">delte bøtter.</text><path d="M223.722 1.88653 212.402 19.128 206.655 15.3549 217.975-1.88653ZM208.581 24.8806 197.966 40.7296 197.042 42.0543 191.403 38.1206 192.309 36.8227 192.272 36.8767 202.868 21.0549ZM193.108 47.6927 184.982 59.3398 181.087 64.5777 175.57 60.4751 179.434 55.279 179.373 55.3634 187.47 43.7589ZM176.984 70.0944 171.893 76.9402 165.277 85.2836 164.224 86.5424 158.95 82.1327 159.974 80.908 159.918 80.9768 166.474 72.7101 166.409 72.7948 171.468 65.9919ZM159.815 91.8169 158.625 93.2401 151.922 100.78 145.771 107.223 140.798 102.476 146.907 96.0769 146.824 96.1667 153.452 88.7114 153.384 88.7904 154.54 87.4072ZM140.745 112.12 138.337 114.442 131.439 120.478 124.76 125.691 120.53 120.272 127.132 115.118 126.984 115.24 133.747 109.322 133.625 109.435 135.973 107.17ZM118.907 129.706 117.391 130.739 110.239 134.877 103.02 138.359 99.9693 139.56 97.4505 133.163 100.382 132.009 100.148 132.111 107.136 128.741 106.907 128.862 113.838 124.852 113.625 124.986 115.038 124.024ZM93.2799 141.994 88.426 143.512 81.07 145.269 73.6861 146.54 72.5506 146.667 71.7856 139.835 72.8205 139.719 72.6201 139.747 79.7956 138.513 79.5797 138.557 86.7138 136.853 86.4866 136.915 91.228 135.432ZM65.5332 147.413 58.8272 147.804 44.6876 147.673 44.7516 140.798 58.7749 140.928 58.5425 140.934 65.1324 140.549ZM37.5932 147.159 29.1426 146.49 16.9332 144.962 17.7871 138.14 29.9188 139.658 29.7629 139.643 38.1355 140.305ZM10.0479 144.002 6.50138 143.477 7.50837 136.676 11.0549 137.202ZM42.3619 171.516 0.00297114 139.04 49.9553 120.232C51.7321 119.563 53.7147 120.461 54.3836 122.238 55.0526 124.015 54.1546 125.997 52.3779 126.666L8.21614 143.294 9.0964 137.349 46.5449 166.06C48.0515 167.215 48.3365 169.373 47.1814 170.88 46.0263 172.386 43.8685 172.671 42.3619 171.516Z" fill="#274247" fill-rule="nonzero" fill-opacity="1" transform="matrix(0.980217 -0.197923 -0.197923 -0.980217 3192.91 646.139)"/><text fill="#274247" fill-opacity="1" font-family="Roboto Condensed,Roboto Condensed_MSFontService,sans-serif" font-style="normal" font-variant="normal" font-weight="700" font-stretch="condensed" font-size="110" text-anchor="start" direction="ltr" writing-mode="lr-tb" unicode-bidi="normal" text-decoration="none" transform="matrix(1 0 0 1 321.477 238)">Team A eier disse bøttene</text></g></g></svg>